<svg width="1011" height="723" viewBox="0 0 1011 723" fill="none" xmlns="http://www.w3.org/2000/svg">
<g filter="url(#filter0_f_3_98)">
<path d="M795.621 695.226C837.783 682.498 914.541 647.717 942.127 621.975C973.938 595.031 921.185 562.575 913.357 558.033C905.528 553.49 403.282 303.148 336.18 273.621C269.078 244.093 97.3733 348.138 45.9222 376.7C3.98332 399.982 33.6201 416.449 39.212 420.992C44.8038 425.534 428.796 624.247 543.988 678.759C631.223 720.041 712.862 720.211 795.621 695.226Z" fill="black" fill-opacity="0.2"/>
</g>
<path fill-rule="evenodd" clip-rule="evenodd" d="M430.242 448.091L481.676 424.239L481.691 424.271C482.019 424.112 482.35 423.957 482.683 423.807C513.321 410.058 557.028 441.208 580.306 493.381C603.584 545.555 597.618 598.996 566.981 612.745C566.543 612.941 566.103 613.128 565.661 613.306L516.114 636.315L488.595 575.997C481.352 566.406 474.797 555.362 469.358 543.171C464.342 531.927 460.683 520.625 458.337 509.674L430.242 448.091Z" fill="black"/>
<ellipse cx="60.8286" cy="103.322" rx="60.8286" ry="103.322" transform="matrix(-0.911976 0.409256 0.40762 0.913593 487.179 422.705)" fill="black"/>
<g filter="url(#filter1_i_3_98)">
<ellipse cx="45.6236" cy="77.4953" rx="45.6236" ry="77.4953" transform="matrix(-0.911976 0.409256 0.40762 0.913593 482.098 452.572)" fill="url(#paint0_linear_3_98)"/>
</g>
<g filter="url(#filter2_di_3_98)">
<path fill-rule="evenodd" clip-rule="evenodd" d="M473.591 486.636C480.287 490.524 486.899 496.363 492.857 503.749L479.557 526.853C477.68 524.65 475.654 522.837 473.591 521.493L473.591 486.636ZM473.591 564.976C476.642 566.258 479.657 566.439 482.277 565.263C482.318 565.245 482.358 565.227 482.397 565.208L501.814 598.936C500.718 599.68 499.559 600.33 498.336 600.879C490.909 604.212 482.251 603.315 473.591 599.063L473.591 564.976ZM471.246 597.829L471.246 563.778C468.892 562.365 466.571 560.333 464.447 557.8L451.406 580.453C457.538 588.028 464.358 593.967 471.246 597.829ZM471.246 520.178L471.246 485.357C462.364 480.819 453.451 479.788 445.834 483.207C443.714 484.158 441.783 485.414 440.046 486.94L459.673 521.033C460.343 520.447 461.087 519.965 461.903 519.598C464.711 518.338 467.972 518.636 471.246 520.178ZM437.508 557.56C440.984 565.35 445.191 572.387 449.843 578.466L462.891 555.802C461.311 553.624 459.878 551.155 458.672 548.452C458.483 548.027 458.301 547.602 458.128 547.177L435.677 553.21C436.251 554.66 436.861 556.111 437.508 557.56ZM481.124 528.832L494.418 505.739C499.034 511.791 503.209 518.787 506.662 526.526C507.354 528.076 508.004 529.629 508.613 531.18L485.888 537.286C485.766 536.994 485.639 536.701 485.509 536.409C484.261 533.612 482.77 531.066 481.124 528.832ZM434.832 551.007C430.74 539.986 428.723 529.072 428.671 519.259L455.268 534.66C455.403 537.899 456.071 541.41 457.297 544.97L434.832 551.007ZM486.742 539.488C488.222 543.646 488.941 547.75 488.938 551.443L515.483 566.813C515.71 556.588 513.743 545.051 509.452 533.385L486.742 539.488ZM515.374 569.462L488.807 554.079C488.374 558.333 486.872 561.84 484.375 563.942L503.7 597.51C510.662 591.675 514.633 581.616 515.374 569.462ZM428.706 516.568L455.282 531.955C455.479 528.338 456.409 525.19 458.029 522.878L438.308 488.623C432.35 494.975 429.083 504.888 428.706 516.568Z" fill="#4C4C4C"/>
</g>
<path fill-rule="evenodd" clip-rule="evenodd" d="M430.249 447.004L481.684 423.152L481.7 423.188C482.022 423.032 482.347 422.88 482.674 422.733C513.312 408.984 557.019 440.133 580.297 492.307C603.574 544.481 597.608 597.922 566.971 611.671C566.509 611.878 566.043 612.076 565.575 612.263L516.122 635.228L488.644 575C481.378 565.391 474.803 554.321 469.349 542.097C464.318 530.822 460.653 519.487 458.308 508.507L430.249 447.004Z" fill="black"/>
<path d="M417.979 566.889C441.24 619.021 484.932 650.137 515.57 636.389C546.208 622.64 552.188 569.232 528.928 517.1C505.668 464.967 460.66 431.044 430.023 444.793C399.385 458.542 394.719 514.756 417.979 566.889Z" fill="#242424"/>
<g filter="url(#filter3_i_3_98)">
<ellipse cx="42.7617" cy="74.7297" rx="42.7617" ry="74.7297" transform="matrix(-0.939744 0.342056 0.316393 0.948614 489.179 456.523)" fill="url(#paint1_linear_3_98)"/>
</g>
<g filter="url(#filter4_di_3_98)">
<path fill-rule="evenodd" clip-rule="evenodd" d="M443.802 555.527C453.24 581.287 471.762 598.121 487.162 595.269L477.969 568.344C471.216 568.264 463.662 561.202 459.236 550.621L443.802 555.527ZM441.616 548.824C434.329 523.415 438.621 499.275 451.629 491.202L460.827 518.14C455.821 522.731 454.227 532.983 457.004 543.933L441.616 548.824ZM486.499 534.557C482.178 523.369 474.37 515.793 467.392 515.633L458.19 488.684C473.804 485.924 492.579 503.313 501.842 529.679L486.499 534.557ZM488.548 541.303L503.939 536.41C510.709 561.271 506.399 584.679 493.705 592.697L484.507 565.758C489.256 561.31 490.883 551.712 488.548 541.303Z" fill="#A9A8A8"/>
</g>
<path fill-rule="evenodd" clip-rule="evenodd" d="M70.3204 296.811L108.852 278.943L108.859 278.959C109.1 278.842 109.343 278.729 109.587 278.619C132.539 268.319 165.282 291.654 182.721 330.74C200.159 369.825 195.69 409.86 172.738 420.16C172.461 420.284 172.183 420.403 171.903 420.518L134.651 437.817L114.064 392.694C108.619 385.494 103.692 377.199 99.6048 368.039C95.8348 359.589 93.0887 351.095 91.3319 342.867L70.3204 296.811Z" fill="black"/>
<ellipse cx="45.5691" cy="77.4027" rx="45.5691" ry="77.4027" transform="matrix(-0.945518 0.324327 0.32255 0.946978 121.079 279.081)" fill="black"/>
<g filter="url(#filter5_i_3_98)">
<ellipse cx="34.1785" cy="58.0548" rx="34.1785" ry="58.0548" transform="matrix(-0.911976 0.409256 0.40762 0.913593 109.154 300.168)" fill="url(#paint2_linear_3_98)"/>
</g>
<g filter="url(#filter6_di_3_98)">
<path fill-rule="evenodd" clip-rule="evenodd" d="M103.341 326.039C108.15 328.944 112.885 333.185 117.17 338.493L107.21 355.794C105.986 354.36 104.678 353.147 103.341 352.195L103.341 326.039ZM103.341 384.599C105.242 385.281 107.107 385.379 108.782 384.78L123.385 410.147C122.716 410.568 122.016 410.944 121.286 411.271C115.892 413.692 109.631 413.134 103.341 410.195L103.341 384.599ZM100.996 408.989L100.996 383.472C99.3773 382.499 97.7793 381.136 96.2977 379.451L86.5157 396.442C91.0097 401.893 95.9787 406.177 100.996 408.989ZM100.996 350.81L100.996 324.731C94.3406 321.33 87.6623 320.557 81.9544 323.118C80.3616 323.833 78.9114 324.778 77.607 325.925L92.3117 351.468C92.8184 351.022 93.3818 350.655 94.0007 350.377C96.1031 349.434 98.5447 349.656 100.996 350.81ZM75.7171 378.819C78.318 384.649 81.4662 389.915 84.9467 394.466L94.7261 377.479C93.5481 375.852 92.4798 374.009 91.5802 371.993C91.5189 371.855 91.4588 371.718 91.3998 371.581L74.5632 376.105C74.9291 377.01 75.3136 377.915 75.7171 378.819ZM108.763 357.798L118.725 340.493C122.034 344.912 125.03 349.983 127.523 355.571C128.04 356.73 128.527 357.89 128.982 359.05L111.967 363.623C111.875 363.405 111.781 363.188 111.684 362.971C110.842 361.083 109.852 359.347 108.763 357.798ZM73.7096 373.903C70.7411 365.906 69.2314 357.983 69.1046 350.814L89.0711 362.374C89.2327 364.597 89.7206 366.973 90.5485 369.378L73.7096 373.903ZM112.799 365.83C113.78 368.759 114.257 371.638 114.254 374.244L134.131 385.753C134.298 378.253 132.889 369.811 129.813 361.258L112.799 365.83ZM134.005 388.392L114.078 376.854C113.672 379.76 112.57 382.146 110.817 383.612L125.292 408.757C130.389 404.493 133.349 397.209 134.005 388.392ZM69.1233 348.112L89.04 359.644C89.1709 357.222 89.7399 355.079 90.725 353.414L75.8907 327.645C71.6972 332.416 69.3959 339.644 69.1233 348.112Z" fill="#4C4C4C"/>
</g>
<path fill-rule="evenodd" clip-rule="evenodd" d="M70.3058 295.995L108.837 278.127L108.842 278.137C109.084 278.02 109.327 277.907 109.573 277.796C132.525 267.496 165.267 290.831 182.706 329.917C200.144 369.002 195.674 409.037 172.723 419.337C172.489 419.442 172.255 419.543 172.019 419.641L134.636 437.001L114.043 391.862C108.6 384.665 103.675 376.373 99.5902 367.217C95.8222 358.771 93.077 350.281 91.3202 342.057L70.3058 295.995Z" fill="black"/>
<path d="M56.6146 378.699C66.9537 420.196 97.1995 448.338 124.17 441.557C151.141 434.775 164.624 395.637 154.285 354.141C143.946 312.644 113.093 282.26 86.1219 289.042C59.151 295.823 46.2755 337.202 56.6146 378.699Z" fill="#242424"/>
<g filter="url(#filter7_i_3_98)">
<ellipse cx="32.0345" cy="55.9829" rx="32.0345" ry="55.9829" transform="matrix(-0.963522 0.267857 0.241582 0.970366 116.488 306.633)" fill="url(#paint3_linear_3_98)"/>
</g>
<g filter="url(#filter8_di_3_98)">
<path fill-rule="evenodd" clip-rule="evenodd" d="M77.3748 379.659C82.8543 397.518 94.2993 409.978 105.117 410.245L99.6934 389.103C95.6432 387.706 91.6931 383.145 89.2578 376.879L77.3748 379.659ZM75.6344 372.826C71.888 354.471 75.8152 337.568 84.875 331.336L90.2937 352.46C87.3191 356.137 86.1256 362.814 87.3782 370.078L75.6344 372.826ZM109.955 364.796C107.383 356.188 101.996 350.072 96.7947 349.539L91.4955 328.88C103.324 327.707 116.347 341.794 121.732 362.04L109.955 364.796ZM111.297 371.722L123.215 368.933C126.227 387.215 121.615 403.572 111.956 408.645L106.652 387.967C110.166 385.149 111.945 378.895 111.297 371.722Z" fill="#A9A8A8"/>
</g>
<g filter="url(#filter9_ii_3_98)">
<path d="M35.6105 345.088C36.0222 350.428 38.2485 354.95 41.3062 358.661C44.2623 362.248 49.9769 360.067 50.7334 355.48C51.3461 351.766 52.1751 346.235 53.3218 337.738C57.7249 305.11 80.8215 292.544 94.8492 295.613C110.793 299.1 125.07 312.276 133.645 334.298C140.559 352.057 144.723 362.09 149.856 402.415C150.004 403.578 150.484 404.641 151.453 405.302C172.305 419.513 409.124 539.835 408.333 536.987C406.194 529.283 406.141 492.838 413.813 475.068C428.881 440.163 452.404 443.492 465.046 445.424C478.448 447.471 509.59 463.818 525.76 496.712C551.403 548.878 545.028 584.31 551.403 602.952C553.495 609.068 655.477 647.689 691.746 656.788C782.434 683.814 910.52 591.741 934.68 573.908C958.84 556.076 960.805 503.641 957.254 445.424C957.308 411.398 950.024 393.759 944.815 388.33C919.904 362.365 860.807 320.263 823 299.941C822.377 299.606 821.808 299.157 821.33 298.635C728.951 197.879 723.06 185.317 691.258 169.863C626.621 138.452 363.44 31.5858 305.573 31.5858C271.381 31.5858 151.003 70.4631 118.488 95.2461C92.7276 114.88 68.0424 158.389 54.9132 186.904C54.6558 187.463 54.4924 188.018 54.4128 188.628C51.8349 208.393 46.8535 266.741 41.6189 272.418C34.9743 279.624 34.7266 333.625 35.6105 345.088Z" fill="url(#paint4_linear_3_98)"/>
</g>
<mask id="mask0_3_98" style="mask-type:alpha" maskUnits="userSpaceOnUse" x="35" y="31" width="924" height="631">
<path d="M35.6051 345.087C36.0168 350.427 38.2431 354.949 41.3008 358.66C44.2569 362.247 49.7184 360.012 50.3941 355.413C50.9342 351.737 51.7013 346.292 52.8218 337.988C57.2249 305.36 80.8161 292.543 94.8438 295.612C110.788 299.1 125.064 312.275 133.639 334.297C140.554 352.056 144.718 362.089 149.85 402.414C149.998 403.577 150.478 404.64 151.448 405.301C172.299 419.512 409.118 539.834 408.328 536.986C406.189 529.282 406.136 492.837 413.807 475.067C428.876 440.162 452.398 443.491 465.041 445.423C478.442 447.47 509.585 463.817 525.755 496.711C551.398 548.877 545.023 584.309 551.398 602.951C553.49 609.067 655.472 647.688 691.741 656.787C782.428 683.813 910.515 591.74 934.675 573.907C958.835 556.075 960.8 503.64 957.249 445.423C957.303 411.397 950.019 393.759 944.81 388.329C919.899 362.364 860.802 320.262 822.995 299.94C822.371 299.605 821.803 299.156 821.325 298.634C728.932 197.877 720.466 185.082 674.208 162.602C609.571 131.19 363.434 31.585 305.568 31.585C271.375 31.585 150.998 70.4622 118.482 95.2453C92.7222 114.879 68.0371 158.388 54.9079 186.903C54.6505 187.462 54.4871 188.017 54.4075 188.627C51.8295 208.392 46.8481 266.74 41.6136 272.417C34.9689 279.623 34.7212 333.624 35.6051 345.087Z" fill="url(#paint5_linear_3_98)"/>
</mask>
<g mask="url(#mask0_3_98)">
<g filter="url(#filter10_ddii_3_98)">
<path d="M756.912 511.445C733.222 513.147 690.373 517.889 647.235 494.154C643.04 491.846 636.074 497.969 638.173 502.271C645.554 517.394 654.177 534.213 662.191 538.395C677.775 546.527 722.461 561.819 765.307 554.143C765.515 554.105 765.723 554.078 765.935 554.091C770.558 554.371 782.097 563.347 792.348 567.299C808.564 571.803 879.555 533.268 897.45 523.156C935.229 501.808 948.137 486.16 950.148 482.017C953.29 475.544 951.174 462.168 951.8 457.993C952.314 454.563 955.534 447.239 956.665 444.738C956.922 444.169 957.057 443.567 957.05 442.942C957.007 439.164 956.676 424.702 954.159 413.111C954.092 412.803 954.057 412.487 954.056 412.172C953.922 390.511 944.74 375.797 944.743 387.125C944.743 402.789 940.699 421.599 929.369 430.66C929.111 430.867 928.931 431.033 928.662 431.226C921.159 436.609 790.357 509.041 756.912 511.445Z" fill="#272727"/>
</g>
<mask id="mask1_3_98" style="mask-type:alpha" maskUnits="userSpaceOnUse" x="635" y="383" width="323" height="185">
<path d="M756.912 511.445C732.322 513.212 687.088 518.253 642.315 491.322C639.186 489.44 634.095 493.884 635.692 497.168C643.572 513.38 653.261 533.735 662.191 538.395C677.784 546.532 722.512 561.836 765.381 554.129C765.54 554.101 765.696 554.081 765.858 554.087C770.429 554.271 782.04 563.325 792.348 567.299C808.564 571.803 879.555 533.268 897.45 523.156C935.229 501.808 949.788 484.959 951.8 480.815C954.942 474.343 951.174 461.417 951.8 457.243C952.322 453.76 955.632 446.786 956.715 444.572C956.939 444.113 957.057 443.616 957.052 443.105C957.016 439.588 956.712 424.785 954.135 413.001C954.083 412.766 954.057 412.525 954.056 412.285C953.954 390.563 944.74 375.778 944.743 387.125C944.743 402.831 940.677 421.701 929.277 430.734C929.079 430.891 928.972 430.994 928.771 431.146C922.545 435.841 790.534 509.029 756.912 511.445Z" fill="#211F1F"/>
</mask>
<g mask="url(#mask1_3_98)">
<g filter="url(#filter11_ddii_3_98)">
<path d="M756.912 511.445C733.221 513.147 690.367 517.889 647.226 494.149C643.033 491.842 636.07 497.962 638.169 502.262C645.55 517.387 654.176 534.212 662.191 538.395C677.775 546.527 722.461 561.819 765.307 554.143C765.515 554.105 765.723 554.078 765.935 554.091C770.557 554.371 782.097 563.347 792.348 567.299C808.564 571.803 879.555 533.268 897.45 523.156C935.229 501.808 947.386 486.611 949.397 482.467C952.54 475.994 950.424 461.567 951.049 457.393C951.55 454.049 955.105 447.389 956.498 444.874C956.862 444.218 957.058 443.491 957.048 442.741C956.995 438.675 956.633 424.506 954.159 413.111C954.092 412.803 954.058 412.487 954.056 412.172C953.922 390.512 944.74 375.797 944.743 387.125C944.743 402.789 940.699 421.599 929.369 430.661C929.111 430.867 928.931 431.033 928.663 431.226C921.162 436.607 790.358 509.041 756.912 511.445Z" fill="#272727"/>
</g>
<g filter="url(#filter12_d_3_98)">
<path d="M943.294 396.632C944.179 398.048 945.292 400.082 946.199 402.546C948.015 407.476 948.972 414.005 945.807 420.789C944.903 422.726 943.166 424.831 941.215 426.042C939.292 427.235 937.511 427.398 935.985 426.289C934.922 425.517 933.506 424.912 932.097 424.435C930.661 423.949 929.107 423.554 927.691 423.245C926.78 423.045 925.916 422.88 925.163 422.746L943.141 396.392C943.191 396.47 943.243 396.549 943.294 396.632Z" stroke="white" stroke-opacity="0.9" stroke-width="3.41524"/>
</g>
<g filter="url(#filter13_d_3_98)">
<path d="M763.065 506.734C763.554 509.122 763.819 512.294 763.003 515.574C762.197 518.818 760.318 522.238 756.395 525.175C752.443 528.133 746.33 530.663 736.967 531.919C731.408 532.665 723.715 532.638 715.811 531.139C707.902 529.638 699.906 526.688 693.629 521.685C690.238 518.982 686.069 513.638 682.67 508.81C681.001 506.44 679.553 504.242 678.517 502.632L762.293 503.894C762.294 503.896 762.294 503.899 762.295 503.901C762.527 504.572 762.822 505.547 763.065 506.734Z" stroke="white" stroke-opacity="0.9" stroke-width="3.41524"/>
</g>
</g>
<g filter="url(#filter14_ddi_3_98)">
<path d="M566.569 405.983C544.114 396.691 517.709 317.387 489.855 268.641C487.765 264.984 489.333 260.29 493.244 258.723L696.513 177.31C698.201 176.634 700.056 176.698 701.556 177.726C708.467 182.465 731.843 201.39 791.293 271.515C809.688 293.214 812.399 295.909 821.603 305.992C822.971 307.49 818.067 314.616 813.277 318.564C793.574 334.801 620.734 428.396 566.569 405.983Z" fill="url(#paint6_linear_3_98)"/>
</g>
<g filter="url(#filter15_di_3_98)">
<path d="M457.034 269.615C422.923 251.105 343.677 213.581 318.848 201.886C314.968 200.059 310.452 202.353 309.632 206.563C305.406 228.251 294.823 285.462 300.155 288.409C425.089 357.516 467.203 378.059 473.732 381.19C484.701 386.451 510.926 403.107 506.279 389.57C499.019 368.42 477.853 280.912 457.034 269.615Z" fill="url(#paint7_linear_3_98)"/>
</g>
<g filter="url(#filter16_f_3_98)">
<path d="M644.945 480.36C595.226 459.082 566.805 431.331 536.472 406.097C625.215 429.471 811.038 480.876 808.267 484.677C804.804 489.428 791.752 495.337 747.913 499.644C704.753 503.884 650.637 482.797 644.945 480.36Z" fill="url(#paint8_linear_3_98)" fill-opacity="0.21"/>
</g>
<path d="M733.57 363.211L571.315 226.052C556.226 232.359 508.547 252.152 501.552 254.778C492.489 258.182 488.609 261.092 488.609 261.092C486.873 262.828 485.623 261.101 488.609 266.458C493.976 276.086 501.667 292.021 512.758 315.545C532.33 357.056 550.942 402.249 567.843 407.248C590.256 413.877 626.611 404.973 655.599 395.41C681.511 386.862 714.352 371.019 733.57 363.211Z" fill="#C4C4C4" fill-opacity="0.2"/>
<g filter="url(#filter17_di_3_98)">
<path d="M329.627 346.007C329.627 345.335 329.243 344.722 328.64 344.429L306.306 333.57C305.145 333.005 303.795 333.851 303.795 335.144L303.795 339.675C303.795 340.347 304.18 340.962 304.785 341.255L327.118 352.069C328.279 352.631 329.627 351.785 329.627 350.494L329.627 346.007Z" fill="#323232"/>
</g>
<g filter="url(#filter18_di_3_98)">
<path d="M247.263 305.774C247.263 305.102 246.879 304.488 246.275 304.195L223.942 293.336C222.781 292.772 221.431 293.617 221.431 294.91L221.431 299.441C221.431 300.114 221.816 300.728 222.421 301.021L244.754 311.835C245.915 312.397 247.263 311.552 247.263 310.26L247.263 305.774Z" fill="#323232"/>
</g>
<g filter="url(#filter19_di_3_98)">
<path d="M137.384 113.493L281.145 184.016C284.055 185.443 285.522 188.75 284.692 191.883C281.537 203.777 274.239 234.113 271.175 270.528C270.711 276.046 134.845 209.569 119.23 196.957C103.034 183.876 115.383 139.807 129.124 115.87C130.78 112.987 134.399 112.028 137.384 113.493Z" fill="url(#paint9_linear_3_98)"/>
</g>
<g filter="url(#filter20_di_3_98)">
<path d="M105.017 134.137C118.482 111.42 119.859 103.19 111.263 101.851C99.861 108.074 66.3333 154.435 60.6337 175.57C59.5518 179.582 68.0996 178.223 77.4651 171.61C86.8306 164.997 88.1864 162.533 105.017 134.137Z" fill="url(#paint10_linear_3_98)"/>
</g>
<g filter="url(#filter21_f_3_98)">
<path d="M91.2438 256.86L88.7636 255.599C89.5986 255.998 90.4253 256.418 91.2438 256.86L437.014 432.685C438.935 433.662 438.868 436.514 436.974 437.543C425.472 443.794 405.204 459.603 403.572 491.127C403.475 493.003 401.486 494.229 399.809 493.383L153.88 369.242C152.994 368.795 152.46 367.88 152.414 366.889C151.62 349.688 131.302 278.463 91.2438 256.86Z" fill="url(#paint11_linear_3_98)" fill-opacity="0.12"/>
</g>
</g>
<defs>
<filter id="filter0_f_3_98" x="13.8321" y="258.398" width="948.401" height="463.84" filterUnits="userSpaceOnUse" color-interpolation-filters="sRGB">
<feFlood flood-opacity="0" result="BackgroundImageFix"/>
<feBlend mode="normal" in="SourceGraphic" in2="BackgroundImageFix" result="shape"/>
<feGaussianBlur stdDeviation="5" result="effect1_foregroundBlur_3_98"/>
</filter>
<filter id="filter1_i_3_98" x="419.836" y="468.805" width="104.486" height="146.476" filterUnits="userSpaceOnUse" color-interpolation-filters="sRGB">
<feFlood flood-opacity="0" result="BackgroundImageFix"/>
<feBlend mode="normal" in="SourceGraphic" in2="BackgroundImageFix" result="shape"/>
<feColorMatrix in="SourceAlpha" type="matrix" values="0 0 0 0 0 0 0 0 0 0 0 0 0 0 0 0 0 0 127 0" result="hardAlpha"/>
<feMorphology radius="1.17321" operator="erode" in="SourceAlpha" result="effect1_innerShadow_3_98"/>
<feOffset/>
<feGaussianBlur stdDeviation="0.586606"/>
<feComposite in2="hardAlpha" operator="arithmetic" k2="-1" k3="1"/>
<feColorMatrix type="matrix" values="0 0 0 0 0 0 0 0 0 0 0 0 0 0 0 0 0 0 0.25 0"/>
<feBlend mode="normal" in2="shape" result="effect1_innerShadow_3_98"/>
</filter>
<filter id="filter2_di_3_98" x="425.151" y="480.945" width="91.0535" height="124.307" filterUnits="userSpaceOnUse" color-interpolation-filters="sRGB">
<feFlood flood-opacity="0" result="BackgroundImageFix"/>
<feColorMatrix in="SourceAlpha" type="matrix" values="0 0 0 0 0 0 0 0 0 0 0 0 0 0 0 0 0 0 127 0" result="hardAlpha"/>
<feOffset dy="0.469285"/>
<feGaussianBlur stdDeviation="0.351963"/>
<feColorMatrix type="matrix" values="0 0 0 0 1 0 0 0 0 1 0 0 0 0 1 0 0 0 0.41 0"/>
<feBlend mode="normal" in2="BackgroundImageFix" result="effect1_dropShadow_3_98"/>
<feBlend mode="normal" in="SourceGraphic" in2="effect1_dropShadow_3_98" result="shape"/>
<feColorMatrix in="SourceAlpha" type="matrix" values="0 0 0 0 0 0 0 0 0 0 0 0 0 0 0 0 0 0 127 0" result="hardAlpha"/>
<feOffset dx="-3.51963" dy="2.34642"/>
<feGaussianBlur stdDeviation="1.75982"/>
<feComposite in2="hardAlpha" operator="arithmetic" k2="-1" k3="1"/>
<feColorMatrix type="matrix" values="0 0 0 0 0 0 0 0 0 0 0 0 0 0 0 0 0 0 0.25 0"/>
<feBlend mode="normal" in2="shape" result="effect2_innerShadow_3_98"/>
</filter>
<filter id="filter3_i_3_98" x="426.005" y="469.643" width="93.2646" height="144.795" filterUnits="userSpaceOnUse" color-interpolation-filters="sRGB">
<feFlood flood-opacity="0" result="BackgroundImageFix"/>
<feBlend mode="normal" in="SourceGraphic" in2="BackgroundImageFix" result="shape"/>
<feColorMatrix in="SourceAlpha" type="matrix" values="0 0 0 0 0 0 0 0 0 0 0 0 0 0 0 0 0 0 127 0" result="hardAlpha"/>
<feMorphology radius="1.56332" operator="erode" in="SourceAlpha" result="effect1_innerShadow_3_98"/>
<feOffset/>
<feGaussianBlur stdDeviation="0.781658"/>
<feComposite in2="hardAlpha" operator="arithmetic" k2="-1" k3="1"/>
<feColorMatrix type="matrix" values="0 0 0 0 0 0 0 0 0 0 0 0 0 0 0 0 0 0 0.25 0"/>
<feBlend mode="normal" in2="shape" result="effect1_innerShadow_3_98"/>
</filter>
<filter id="filter4_di_3_98" x="436.083" y="488.263" width="71.7065" height="108.653" filterUnits="userSpaceOnUse" color-interpolation-filters="sRGB">
<feFlood flood-opacity="0" result="BackgroundImageFix"/>
<feColorMatrix in="SourceAlpha" type="matrix" values="0 0 0 0 0 0 0 0 0 0 0 0 0 0 0 0 0 0 127 0" result="hardAlpha"/>
<feOffset dy="0.533156"/>
<feGaussianBlur stdDeviation="0.333223"/>
<feColorMatrix type="matrix" values="0 0 0 0 1 0 0 0 0 1 0 0 0 0 1 0 0 0 0.59 0"/>
<feBlend mode="normal" in2="BackgroundImageFix" result="effect1_dropShadow_3_98"/>
<feBlend mode="normal" in="SourceGraphic" in2="effect1_dropShadow_3_98" result="shape"/>
<feColorMatrix in="SourceAlpha" type="matrix" values="0 0 0 0 0 0 0 0 0 0 0 0 0 0 0 0 0 0 127 0" result="hardAlpha"/>
<feOffset dx="-1.99934" dy="1.33289"/>
<feGaussianBlur stdDeviation="0.999668"/>
<feComposite in2="hardAlpha" operator="arithmetic" k2="-1" k3="1"/>
<feColorMatrix type="matrix" values="0 0 0 0 0 0 0 0 0 0 0 0 0 0 0 0 0 0 0.25 0"/>
<feBlend mode="normal" in2="shape" result="effect2_innerShadow_3_98"/>
</filter>
<filter id="filter5_i_3_98" x="62.5108" y="312.329" width="78.2747" height="109.731" filterUnits="userSpaceOnUse" color-interpolation-filters="sRGB">
<feFlood flood-opacity="0" result="BackgroundImageFix"/>
<feBlend mode="normal" in="SourceGraphic" in2="BackgroundImageFix" result="shape"/>
<feColorMatrix in="SourceAlpha" type="matrix" values="0 0 0 0 0 0 0 0 0 0 0 0 0 0 0 0 0 0 127 0" result="hardAlpha"/>
<feMorphology radius="1.17321" operator="erode" in="SourceAlpha" result="effect1_innerShadow_3_98"/>
<feOffset/>
<feGaussianBlur stdDeviation="0.586606"/>
<feComposite in2="hardAlpha" operator="arithmetic" k2="-1" k3="1"/>
<feColorMatrix type="matrix" values="0 0 0 0 0 0 0 0 0 0 0 0 0 0 0 0 0 0 0.25 0"/>
<feBlend mode="normal" in2="shape" result="effect1_innerShadow_3_98"/>
</filter>
<filter id="filter6_di_3_98" x="65.585" y="321.365" width="69.2633" height="93.7705" filterUnits="userSpaceOnUse" color-interpolation-filters="sRGB">
<feFlood flood-opacity="0" result="BackgroundImageFix"/>
<feColorMatrix in="SourceAlpha" type="matrix" values="0 0 0 0 0 0 0 0 0 0 0 0 0 0 0 0 0 0 127 0" result="hardAlpha"/>
<feOffset dy="0.469285"/>
<feGaussianBlur stdDeviation="0.351963"/>
<feColorMatrix type="matrix" values="0 0 0 0 1 0 0 0 0 1 0 0 0 0 1 0 0 0 0.41 0"/>
<feBlend mode="normal" in2="BackgroundImageFix" result="effect1_dropShadow_3_98"/>
<feBlend mode="normal" in="SourceGraphic" in2="effect1_dropShadow_3_98" result="shape"/>
<feColorMatrix in="SourceAlpha" type="matrix" values="0 0 0 0 0 0 0 0 0 0 0 0 0 0 0 0 0 0 127 0" result="hardAlpha"/>
<feOffset dx="-3.51963" dy="2.34642"/>
<feGaussianBlur stdDeviation="1.75982"/>
<feComposite in2="hardAlpha" operator="arithmetic" k2="-1" k3="1"/>
<feColorMatrix type="matrix" values="0 0 0 0 0 0 0 0 0 0 0 0 0 0 0 0 0 0 0.25 0"/>
<feBlend mode="normal" in2="shape" result="effect2_innerShadow_3_98"/>
</filter>
<filter id="filter7_i_3_98" x="65.4387" y="314.532" width="67.4149" height="110.011" filterUnits="userSpaceOnUse" color-interpolation-filters="sRGB">
<feFlood flood-opacity="0" result="BackgroundImageFix"/>
<feBlend mode="normal" in="SourceGraphic" in2="BackgroundImageFix" result="shape"/>
<feColorMatrix in="SourceAlpha" type="matrix" values="0 0 0 0 0 0 0 0 0 0 0 0 0 0 0 0 0 0 127 0" result="hardAlpha"/>
<feMorphology radius="1.56332" operator="erode" in="SourceAlpha" result="effect1_innerShadow_3_98"/>
<feOffset/>
<feGaussianBlur stdDeviation="0.781658"/>
<feComposite in2="hardAlpha" operator="arithmetic" k2="-1" k3="1"/>
<feColorMatrix type="matrix" values="0 0 0 0 0 0 0 0 0 0 0 0 0 0 0 0 0 0 0.25 0"/>
<feBlend mode="normal" in2="shape" result="effect1_innerShadow_3_98"/>
</filter>
<filter id="filter8_di_3_98" x="72.2239" y="328.679" width="52.5708" height="82.8993" filterUnits="userSpaceOnUse" color-interpolation-filters="sRGB">
<feFlood flood-opacity="0" result="BackgroundImageFix"/>
<feColorMatrix in="SourceAlpha" type="matrix" values="0 0 0 0 0 0 0 0 0 0 0 0 0 0 0 0 0 0 127 0" result="hardAlpha"/>
<feOffset dy="0.533156"/>
<feGaussianBlur stdDeviation="0.333223"/>
<feColorMatrix type="matrix" values="0 0 0 0 1 0 0 0 0 1 0 0 0 0 1 0 0 0 0.59 0"/>
<feBlend mode="normal" in2="BackgroundImageFix" result="effect1_dropShadow_3_98"/>
<feBlend mode="normal" in="SourceGraphic" in2="effect1_dropShadow_3_98" result="shape"/>
<feColorMatrix in="SourceAlpha" type="matrix" values="0 0 0 0 0 0 0 0 0 0 0 0 0 0 0 0 0 0 127 0" result="hardAlpha"/>
<feOffset dx="-1.99934" dy="1.33289"/>
<feGaussianBlur stdDeviation="0.999668"/>
<feComposite in2="hardAlpha" operator="arithmetic" k2="-1" k3="1"/>
<feColorMatrix type="matrix" values="0 0 0 0 0 0 0 0 0 0 0 0 0 0 0 0 0 0 0.25 0"/>
<feBlend mode="normal" in2="shape" result="effect2_innerShadow_3_98"/>
</filter>
<filter id="filter9_ii_3_98" x="35.242" y="19.0793" width="932.765" height="642.639" filterUnits="userSpaceOnUse" color-interpolation-filters="sRGB">
<feFlood flood-opacity="0" result="BackgroundImageFix"/>
<feBlend mode="normal" in="SourceGraphic" in2="BackgroundImageFix" result="shape"/>
<feColorMatrix in="SourceAlpha" type="matrix" values="0 0 0 0 0 0 0 0 0 0 0 0 0 0 0 0 0 0 127 0" result="hardAlpha"/>
<feOffset dx="9.3799" dy="-12.5065"/>
<feGaussianBlur stdDeviation="37.5196"/>
<feComposite in2="hardAlpha" operator="arithmetic" k2="-1" k3="1"/>
<feColorMatrix type="matrix" values="0 0 0 0 0 0 0 0 0 0 0 0 0 0 0 0 0 0 0.07 0"/>
<feBlend mode="normal" in2="shape" result="effect1_innerShadow_3_98"/>
<feColorMatrix in="SourceAlpha" type="matrix" values="0 0 0 0 0 0 0 0 0 0 0 0 0 0 0 0 0 0 127 0" result="hardAlpha"/>
<feOffset dy="-1.56332"/>
<feGaussianBlur stdDeviation="3.12663"/>
<feComposite in2="hardAlpha" operator="arithmetic" k2="-1" k3="1"/>
<feColorMatrix type="matrix" values="0 0 0 0 0 0 0 0 0 0 0 0 0 0 0 0 0 0 0.09 0"/>
<feBlend mode="normal" in2="effect1_innerShadow_3_98" result="effect2_innerShadow_3_98"/>
</filter>
<filter id="filter10_ddii_3_98" x="636.359" y="381.062" width="322.12" height="196.447" filterUnits="userSpaceOnUse" color-interpolation-filters="sRGB">
<feFlood flood-opacity="0" result="BackgroundImageFix"/>
<feColorMatrix in="SourceAlpha" type="matrix" values="0 0 0 0 0 0 0 0 0 0 0 0 0 0 0 0 0 0 127 0" result="hardAlpha"/>
<feOffset dy="1.07131"/>
<feGaussianBlur stdDeviation="0.714204"/>
<feColorMatrix type="matrix" values="0 0 0 0 0 0 0 0 0 0 0 0 0 0 0 0 0 0 0.57 0"/>
<feBlend mode="normal" in2="BackgroundImageFix" result="effect1_dropShadow_3_98"/>
<feColorMatrix in="SourceAlpha" type="matrix" values="0 0 0 0 0 0 0 0 0 0 0 0 0 0 0 0 0 0 127 0" result="hardAlpha"/>
<feOffset dy="-0.714204"/>
<feGaussianBlur stdDeviation="0.714204"/>
<feColorMatrix type="matrix" values="0 0 0 0 0 0 0 0 0 0 0 0 0 0 0 0 0 0 1 0"/>
<feBlend mode="normal" in2="effect1_dropShadow_3_98" result="effect2_dropShadow_3_98"/>
<feBlend mode="normal" in="SourceGraphic" in2="effect2_dropShadow_3_98" result="shape"/>
<feColorMatrix in="SourceAlpha" type="matrix" values="0 0 0 0 0 0 0 0 0 0 0 0 0 0 0 0 0 0 127 0" result="hardAlpha"/>
<feOffset dy="9.84614"/>
<feGaussianBlur stdDeviation="10.0343"/>
<feComposite in2="hardAlpha" operator="arithmetic" k2="-1" k3="1"/>
<feColorMatrix type="matrix" values="0 0 0 0 0 0 0 0 0 0 0 0 0 0 0 0 0 0 1 0"/>
<feBlend mode="normal" in2="shape" result="effect3_innerShadow_3_98"/>
<feColorMatrix in="SourceAlpha" type="matrix" values="0 0 0 0 0 0 0 0 0 0 0 0 0 0 0 0 0 0 127 0" result="hardAlpha"/>
<feOffset dy="-1.07294"/>
<feGaussianBlur stdDeviation="1.07294"/>
<feComposite in2="hardAlpha" operator="arithmetic" k2="-1" k3="1"/>
<feColorMatrix type="matrix" values="0 0 0 0 0 0 0 0 0 0 0 0 0 0 0 0 0 0 1 0"/>
<feBlend mode="normal" in2="effect3_innerShadow_3_98" result="effect4_innerShadow_3_98"/>
</filter>
<filter id="filter11_ddii_3_98" x="636.355" y="381.062" width="322.121" height="196.447" filterUnits="userSpaceOnUse" color-interpolation-filters="sRGB">
<feFlood flood-opacity="0" result="BackgroundImageFix"/>
<feColorMatrix in="SourceAlpha" type="matrix" values="0 0 0 0 0 0 0 0 0 0 0 0 0 0 0 0 0 0 127 0" result="hardAlpha"/>
<feOffset dy="1.07131"/>
<feGaussianBlur stdDeviation="0.714204"/>
<feColorMatrix type="matrix" values="0 0 0 0 0 0 0 0 0 0 0 0 0 0 0 0 0 0 0.57 0"/>
<feBlend mode="normal" in2="BackgroundImageFix" result="effect1_dropShadow_3_98"/>
<feColorMatrix in="SourceAlpha" type="matrix" values="0 0 0 0 0 0 0 0 0 0 0 0 0 0 0 0 0 0 127 0" result="hardAlpha"/>
<feOffset dy="-0.714204"/>
<feGaussianBlur stdDeviation="0.714204"/>
<feColorMatrix type="matrix" values="0 0 0 0 0 0 0 0 0 0 0 0 0 0 0 0 0 0 1 0"/>
<feBlend mode="normal" in2="effect1_dropShadow_3_98" result="effect2_dropShadow_3_98"/>
<feBlend mode="normal" in="SourceGraphic" in2="effect2_dropShadow_3_98" result="shape"/>
<feColorMatrix in="SourceAlpha" type="matrix" values="0 0 0 0 0 0 0 0 0 0 0 0 0 0 0 0 0 0 127 0" result="hardAlpha"/>
<feOffset dy="9.84614"/>
<feGaussianBlur stdDeviation="10.0343"/>
<feComposite in2="hardAlpha" operator="arithmetic" k2="-1" k3="1"/>
<feColorMatrix type="matrix" values="0 0 0 0 0 0 0 0 0 0 0 0 0 0 0 0 0 0 1 0"/>
<feBlend mode="normal" in2="shape" result="effect3_innerShadow_3_98"/>
<feColorMatrix in="SourceAlpha" type="matrix" values="0 0 0 0 0 0 0 0 0 0 0 0 0 0 0 0 0 0 127 0" result="hardAlpha"/>
<feOffset dy="-1.07294"/>
<feGaussianBlur stdDeviation="1.07294"/>
<feComposite in2="hardAlpha" operator="arithmetic" k2="-1" k3="1"/>
<feColorMatrix type="matrix" values="0 0 0 0 0 0 0 0 0 0 0 0 0 0 0 0 0 0 1 0"/>
<feBlend mode="normal" in2="effect3_innerShadow_3_98" result="effect4_innerShadow_3_98"/>
</filter>
<filter id="filter12_d_3_98" x="921.956" y="393.395" width="30.1812" height="38.1772" filterUnits="userSpaceOnUse" color-interpolation-filters="sRGB">
<feFlood flood-opacity="0" result="BackgroundImageFix"/>
<feColorMatrix in="SourceAlpha" type="matrix" values="0 0 0 0 0 0 0 0 0 0 0 0 0 0 0 0 0 0 127 0" result="hardAlpha"/>
<feOffset dx="1.13841" dy="1.41412"/>
<feGaussianBlur stdDeviation="0.707062"/>
<feColorMatrix type="matrix" values="0 0 0 0 1 0 0 0 0 1 0 0 0 0 1 0 0 0 0.24 0"/>
<feBlend mode="normal" in2="BackgroundImageFix" result="effect1_dropShadow_3_98"/>
<feBlend mode="normal" in="SourceGraphic" in2="effect1_dropShadow_3_98" result="shape"/>
</filter>
<filter id="filter13_d_3_98" x="675.118" y="500.878" width="92.6689" height="36.0568" filterUnits="userSpaceOnUse" color-interpolation-filters="sRGB">
<feFlood flood-opacity="0" result="BackgroundImageFix"/>
<feColorMatrix in="SourceAlpha" type="matrix" values="0 0 0 0 0 0 0 0 0 0 0 0 0 0 0 0 0 0 127 0" result="hardAlpha"/>
<feOffset dx="1.13841" dy="1.41412"/>
<feGaussianBlur stdDeviation="0.707062"/>
<feColorMatrix type="matrix" values="0 0 0 0 1 0 0 0 0 1 0 0 0 0 1 0 0 0 0.24 0"/>
<feBlend mode="normal" in2="BackgroundImageFix" result="effect1_dropShadow_3_98"/>
<feBlend mode="normal" in="SourceGraphic" in2="effect1_dropShadow_3_98" result="shape"/>
</filter>
<filter id="filter14_ddi_3_98" x="485.424" y="174.24" width="338.163" height="237.816" filterUnits="userSpaceOnUse" color-interpolation-filters="sRGB">
<feFlood flood-opacity="0" result="BackgroundImageFix"/>
<feColorMatrix in="SourceAlpha" type="matrix" values="0 0 0 0 0 0 0 0 0 0 0 0 0 0 0 0 0 0 127 0" result="hardAlpha"/>
<feOffset dx="-1.75084" dy="0.875419"/>
<feGaussianBlur stdDeviation="0.875419"/>
<feColorMatrix type="matrix" values="0 0 0 0 1 0 0 0 0 1 0 0 0 0 1 0 0 0 0.28 0"/>
<feBlend mode="normal" in2="BackgroundImageFix" result="effect1_dropShadow_3_98"/>
<feColorMatrix in="SourceAlpha" type="matrix" values="0 0 0 0 0 0 0 0 0 0 0 0 0 0 0 0 0 0 127 0" result="hardAlpha"/>
<feOffset dy="-0.875419"/>
<feGaussianBlur stdDeviation="0.875419"/>
<feColorMatrix type="matrix" values="0 0 0 0 1 0 0 0 0 1 0 0 0 0 1 0 0 0 0.56 0"/>
<feBlend mode="normal" in2="effect1_dropShadow_3_98" result="effect2_dropShadow_3_98"/>
<feBlend mode="normal" in="SourceGraphic" in2="effect2_dropShadow_3_98" result="shape"/>
<feColorMatrix in="SourceAlpha" type="matrix" values="0 0 0 0 0 0 0 0 0 0 0 0 0 0 0 0 0 0 127 0" result="hardAlpha"/>
<feOffset dx="-0.875419" dy="2.62626"/>
<feGaussianBlur stdDeviation="1.31313"/>
<feComposite in2="hardAlpha" operator="arithmetic" k2="-1" k3="1"/>
<feColorMatrix type="matrix" values="0 0 0 0 0 0 0 0 0 0 0 0 0 0 0 0 0 0 0.75 0"/>
<feBlend mode="normal" in2="shape" result="effect3_innerShadow_3_98"/>
</filter>
<filter id="filter15_di_3_98" x="292.65" y="201.252" width="215.08" height="197.87" filterUnits="userSpaceOnUse" color-interpolation-filters="sRGB">
<feFlood flood-opacity="0" result="BackgroundImageFix"/>
<feColorMatrix in="SourceAlpha" type="matrix" values="0 0 0 0 0 0 0 0 0 0 0 0 0 0 0 0 0 0 127 0" result="hardAlpha"/>
<feOffset dy="0.905297"/>
<feGaussianBlur stdDeviation="0.452649"/>
<feColorMatrix type="matrix" values="0 0 0 0 0.925374 0 0 0 0 0.925374 0 0 0 0 0.925374 0 0 0 0.37 0"/>
<feBlend mode="normal" in2="BackgroundImageFix" result="effect1_dropShadow_3_98"/>
<feBlend mode="normal" in="SourceGraphic" in2="effect1_dropShadow_3_98" result="shape"/>
<feColorMatrix in="SourceAlpha" type="matrix" values="0 0 0 0 0 0 0 0 0 0 0 0 0 0 0 0 0 0 127 0" result="hardAlpha"/>
<feOffset dx="-6.03563" dy="4.36889"/>
<feGaussianBlur stdDeviation="3.01781"/>
<feComposite in2="hardAlpha" operator="arithmetic" k2="-1" k3="1"/>
<feColorMatrix type="matrix" values="0 0 0 0 0 0 0 0 0 0 0 0 0 0 0 0 0 0 0.63 0"/>
<feBlend mode="normal" in2="shape" result="effect2_innerShadow_3_98"/>
</filter>
<filter id="filter16_f_3_98" x="511.96" y="381.586" width="320.85" height="143.132" filterUnits="userSpaceOnUse" color-interpolation-filters="sRGB">
<feFlood flood-opacity="0" result="BackgroundImageFix"/>
<feBlend mode="normal" in="SourceGraphic" in2="BackgroundImageFix" result="shape"/>
<feGaussianBlur stdDeviation="12.2559" result="effect1_foregroundBlur_3_98"/>
</filter>
<filter id="filter17_di_3_98" x="303.361" y="332.524" width="26.7001" height="21.8933" filterUnits="userSpaceOnUse" color-interpolation-filters="sRGB">
<feFlood flood-opacity="0" result="BackgroundImageFix"/>
<feColorMatrix in="SourceAlpha" type="matrix" values="0 0 0 0 0 0 0 0 0 0 0 0 0 0 0 0 0 0 127 0" result="hardAlpha"/>
<feOffset dy="-0.434189"/>
<feGaussianBlur stdDeviation="0.217094"/>
<feColorMatrix type="matrix" values="0 0 0 0 0.78755 0 0 0 0 0.78755 0 0 0 0 0.78755 0 0 0 0.19 0"/>
<feBlend mode="normal" in2="BackgroundImageFix" result="effect1_dropShadow_3_98"/>
<feBlend mode="normal" in="SourceGraphic" in2="effect1_dropShadow_3_98" result="shape"/>
<feColorMatrix in="SourceAlpha" type="matrix" values="0 0 0 0 0 0 0 0 0 0 0 0 0 0 0 0 0 0 127 0" result="hardAlpha"/>
<feOffset dy="2.17094"/>
<feGaussianBlur stdDeviation="1.08547"/>
<feComposite in2="hardAlpha" operator="arithmetic" k2="-1" k3="1"/>
<feColorMatrix type="matrix" values="0 0 0 0 0 0 0 0 0 0 0 0 0 0 0 0 0 0 0.74 0"/>
<feBlend mode="normal" in2="shape" result="effect2_innerShadow_3_98"/>
</filter>
<filter id="filter18_di_3_98" x="220.997" y="292.29" width="26.7001" height="21.8933" filterUnits="userSpaceOnUse" color-interpolation-filters="sRGB">
<feFlood flood-opacity="0" result="BackgroundImageFix"/>
<feColorMatrix in="SourceAlpha" type="matrix" values="0 0 0 0 0 0 0 0 0 0 0 0 0 0 0 0 0 0 127 0" result="hardAlpha"/>
<feOffset dy="-0.434189"/>
<feGaussianBlur stdDeviation="0.217094"/>
<feColorMatrix type="matrix" values="0 0 0 0 0.78755 0 0 0 0 0.78755 0 0 0 0 0.78755 0 0 0 0.19 0"/>
<feBlend mode="normal" in2="BackgroundImageFix" result="effect1_dropShadow_3_98"/>
<feBlend mode="normal" in="SourceGraphic" in2="effect1_dropShadow_3_98" result="shape"/>
<feColorMatrix in="SourceAlpha" type="matrix" values="0 0 0 0 0 0 0 0 0 0 0 0 0 0 0 0 0 0 127 0" result="hardAlpha"/>
<feOffset dy="2.17094"/>
<feGaussianBlur stdDeviation="1.08547"/>
<feComposite in2="hardAlpha" operator="arithmetic" k2="-1" k3="1"/>
<feColorMatrix type="matrix" values="0 0 0 0 0 0 0 0 0 0 0 0 0 0 0 0 0 0 0.74 0"/>
<feBlend mode="normal" in2="shape" result="effect2_innerShadow_3_98"/>
</filter>
<filter id="filter19_di_3_98" x="105.506" y="112.814" width="180.321" height="162.407" filterUnits="userSpaceOnUse" color-interpolation-filters="sRGB">
<feFlood flood-opacity="0" result="BackgroundImageFix"/>
<feColorMatrix in="SourceAlpha" type="matrix" values="0 0 0 0 0 0 0 0 0 0 0 0 0 0 0 0 0 0 127 0" result="hardAlpha"/>
<feOffset dy="0.905297"/>
<feGaussianBlur stdDeviation="0.452649"/>
<feColorMatrix type="matrix" values="0 0 0 0 0.925374 0 0 0 0 0.925374 0 0 0 0 0.925374 0 0 0 0.37 0"/>
<feBlend mode="normal" in2="BackgroundImageFix" result="effect1_dropShadow_3_98"/>
<feBlend mode="normal" in="SourceGraphic" in2="effect1_dropShadow_3_98" result="shape"/>
<feColorMatrix in="SourceAlpha" type="matrix" values="0 0 0 0 0 0 0 0 0 0 0 0 0 0 0 0 0 0 127 0" result="hardAlpha"/>
<feOffset dx="-6.03563" dy="4.36889"/>
<feGaussianBlur stdDeviation="3.01781"/>
<feComposite in2="hardAlpha" operator="arithmetic" k2="-1" k3="1"/>
<feColorMatrix type="matrix" values="0 0 0 0 0 0 0 0 0 0 0 0 0 0 0 0 0 0 0.63 0"/>
<feBlend mode="normal" in2="shape" result="effect2_innerShadow_3_98"/>
</filter>
<filter id="filter20_di_3_98" x="56.1288" y="101.851" width="61.6732" height="80.3853" filterUnits="userSpaceOnUse" color-interpolation-filters="sRGB">
<feFlood flood-opacity="0" result="BackgroundImageFix"/>
<feColorMatrix in="SourceAlpha" type="matrix" values="0 0 0 0 0 0 0 0 0 0 0 0 0 0 0 0 0 0 127 0" result="hardAlpha"/>
<feOffset dy="1.14068"/>
<feGaussianBlur stdDeviation="0.57034"/>
<feColorMatrix type="matrix" values="0 0 0 0 0.925374 0 0 0 0 0.925374 0 0 0 0 0.925374 0 0 0 0.37 0"/>
<feBlend mode="normal" in2="BackgroundImageFix" result="effect1_dropShadow_3_98"/>
<feBlend mode="normal" in="SourceGraphic" in2="effect1_dropShadow_3_98" result="shape"/>
<feColorMatrix in="SourceAlpha" type="matrix" values="0 0 0 0 0 0 0 0 0 0 0 0 0 0 0 0 0 0 127 0" result="hardAlpha"/>
<feOffset dx="-4.41214" dy="5.51517"/>
<feGaussianBlur stdDeviation="2.20607"/>
<feComposite in2="hardAlpha" operator="arithmetic" k2="-1" k3="1"/>
<feColorMatrix type="matrix" values="0 0 0 0 0 0 0 0 0 0 0 0 0 0 0 0 0 0 0.8 0"/>
<feBlend mode="normal" in2="shape" result="effect2_innerShadow_3_98"/>
</filter>
<filter id="filter21_f_3_98" x="84.9812" y="251.816" width="357.226" height="245.622" filterUnits="userSpaceOnUse" color-interpolation-filters="sRGB">
<feFlood flood-opacity="0" result="BackgroundImageFix"/>
<feBlend mode="normal" in="SourceGraphic" in2="BackgroundImageFix" result="shape"/>
<feGaussianBlur stdDeviation="1.89119" result="effect1_foregroundBlur_3_98"/>
</filter>
<linearGradient id="paint0_linear_3_98" x1="107.616" y1="118.217" x2="112.974" y2="38.5208" gradientUnits="userSpaceOnUse">
<stop stop-color="#3F3F3F"/>
<stop offset="1" stop-color="#5C5C5C"/>
</linearGradient>
<linearGradient id="paint1_linear_3_98" x1="100.866" y1="113.998" x2="106.18" y2="37.1663" gradientUnits="userSpaceOnUse">
<stop stop-color="#AAAAAA"/>
<stop offset="1" stop-color="#C2C2C2"/>
</linearGradient>
<linearGradient id="paint2_linear_3_98" x1="80.6195" y1="88.5612" x2="84.6331" y2="28.8574" gradientUnits="userSpaceOnUse">
<stop stop-color="#3F3F3F"/>
<stop offset="1" stop-color="#5C5C5C"/>
</linearGradient>
<linearGradient id="paint3_linear_3_98" x1="75.5623" y1="85.4007" x2="79.5433" y2="27.8427" gradientUnits="userSpaceOnUse">
<stop stop-color="#AAAAAA"/>
<stop offset="1" stop-color="#C2C2C2"/>
</linearGradient>
<linearGradient id="paint4_linear_3_98" x1="382.822" y1="491.238" x2="603.605" y2="45.5582" gradientUnits="userSpaceOnUse">
<stop stop-color="#CECBCB"/>
<stop offset="1" stop-color="white"/>
</linearGradient>
<linearGradient id="paint5_linear_3_98" x1="411.198" y1="593.33" x2="70.3086" y2="20.0415" gradientUnits="userSpaceOnUse">
<stop stop-color="#E1E1E1"/>
<stop offset="1" stop-color="white"/>
</linearGradient>
<linearGradient id="paint6_linear_3_98" x1="783.64" y1="117.45" x2="558.043" y2="307.517" gradientUnits="userSpaceOnUse">
<stop stop-color="#E8EAE9"/>
<stop offset="0.498386" stop-color="#707072"/>
<stop offset="1" stop-color="#2F3032"/>
</linearGradient>
<linearGradient id="paint7_linear_3_98" x1="162.631" y1="786.633" x2="188.873" y2="227.053" gradientUnits="userSpaceOnUse">
<stop stop-color="#E8EAE9"/>
<stop offset="0.498386" stop-color="#707072"/>
<stop offset="1" stop-color="#2F3032"/>
</linearGradient>
<linearGradient id="paint8_linear_3_98" x1="665.408" y1="508.24" x2="684.711" y2="445.595" gradientUnits="userSpaceOnUse">
<stop stop-color="#ECEAEA"/>
<stop offset="1" stop-color="white" stop-opacity="0"/>
</linearGradient>
<linearGradient id="paint9_linear_3_98" x1="7.83957" y1="569.535" x2="28.758" y2="133.373" gradientUnits="userSpaceOnUse">
<stop stop-color="#E8EAE9"/>
<stop offset="0.498386" stop-color="#707072"/>
<stop offset="1" stop-color="#2F3032"/>
</linearGradient>
<linearGradient id="paint10_linear_3_98" x1="116.395" y1="285.826" x2="30.06" y2="220.522" gradientUnits="userSpaceOnUse">
<stop stop-color="#E8EAE9"/>
<stop offset="0.498386" stop-color="#707072"/>
<stop offset="1" stop-color="#2F3032"/>
</linearGradient>
<linearGradient id="paint11_linear_3_98" x1="214.992" y1="468.521" x2="282.24" y2="336.822" gradientUnits="userSpaceOnUse">
<stop stop-color="#040404"/>
<stop offset="1" stop-color="#3C3C3C" stop-opacity="0"/>
</linearGradient>
</defs>
</svg>
