<svg width="937" height="686" viewBox="0 0 937 686" fill="none" xmlns="http://www.w3.org/2000/svg">
<g filter="url(#filter0_f_3_244)">
<path d="M732.473 652.23C771.539 640.43 842.66 608.188 868.221 584.325C897.695 559.347 848.817 529.26 841.563 525.049C834.309 520.838 368.943 288.768 306.768 261.396C244.594 234.023 85.4973 330.475 37.8243 356.952C-1.03497 378.534 26.4255 393.799 31.6068 398.011C36.788 402.222 392.583 586.43 499.317 636.964C580.146 675.233 655.79 675.391 732.473 652.23Z" fill="black" fill-opacity="0.2"/>
</g>
<path fill-rule="evenodd" clip-rule="evenodd" d="M399.657 415.377L447.314 393.266L447.32 393.278C447.621 393.132 447.925 392.991 448.231 392.853C476.62 380.109 517.12 408.985 538.691 457.349C560.262 505.714 554.735 555.252 526.347 567.997C526.059 568.125 525.771 568.25 525.482 568.37L479.223 589.863L453.724 533.944C447.008 525.05 440.93 514.808 435.887 503.5C431.234 493.067 427.841 482.579 425.667 472.417L399.657 415.377Z" fill="black"/>
<ellipse cx="56.3665" cy="95.7734" rx="56.3665" ry="95.7734" transform="matrix(-0.911904 0.409419 0.407458 0.913666 452.461 391.846)" fill="black"/>
<g filter="url(#filter1_i_3_244)">
<ellipse cx="42.2769" cy="71.8334" rx="42.2769" ry="71.8334" transform="matrix(-0.911904 0.409419 0.407458 0.913666 447.738 419.535)" fill="url(#paint0_linear_3_244)"/>
</g>
<g filter="url(#filter2_di_3_244)">
<path fill-rule="evenodd" clip-rule="evenodd" d="M439.624 450.994C445.89 454.593 452.082 460.041 457.657 466.95L445.327 488.378C443.535 486.275 441.596 484.557 439.624 483.303L439.624 450.994ZM439.624 523.651C442.515 524.912 445.378 525.112 447.86 523.998C447.949 523.958 448.038 523.916 448.125 523.873L466.108 555.121C465.054 555.85 463.934 556.483 462.752 557.014C455.813 560.129 447.715 559.258 439.624 555.232L439.624 523.651ZM437.634 554.178L437.634 522.619C435.404 521.279 433.206 519.339 431.202 516.915L419.126 537.903C424.839 545.003 431.204 550.567 437.634 554.178ZM437.634 482.202L437.634 449.915C429.41 445.716 421.158 444.763 414.105 447.93C412.132 448.816 410.336 449.987 408.72 451.41L426.903 483.006C427.527 482.459 428.22 482.008 428.981 481.666C431.582 480.499 434.602 480.774 437.634 482.202ZM406.39 516.856C409.606 524.068 413.499 530.583 417.802 536.214L429.886 515.213C428.426 513.197 427.102 510.913 425.988 508.414C425.787 507.963 425.595 507.512 425.414 507.061L404.625 512.65C405.177 514.052 405.765 515.455 406.39 516.856ZM446.661 490.05L458.983 468.636C463.315 474.288 467.233 480.836 470.467 488.088C471.107 489.524 471.709 490.963 472.274 492.4L451.206 498.064C451.092 497.793 450.974 497.521 450.853 497.25C449.664 494.584 448.237 492.163 446.661 490.05ZM403.91 510.78C400.09 500.487 398.222 490.293 398.201 481.144L422.825 495.409C422.929 498.472 423.55 501.806 424.714 505.187L403.91 510.78ZM451.934 499.931C453.347 503.844 454.033 507.71 454.031 511.185L478.639 525.44C478.851 515.908 477.009 505.147 472.987 494.271L451.934 499.931ZM478.55 527.69L453.93 513.427C453.555 517.468 452.153 520.8 449.793 522.781L467.704 553.905C474.204 548.466 477.895 539.056 478.55 527.69ZM398.235 478.862L422.847 493.12C423.034 489.688 423.932 486.711 425.499 484.556L407.243 452.833C401.651 458.718 398.585 467.96 398.235 478.862Z" fill="#4C4C4C"/>
</g>
<path fill-rule="evenodd" clip-rule="evenodd" d="M453.824 533.112C447.061 524.181 440.941 513.884 435.869 502.509C431.189 492.014 427.784 481.463 425.612 471.245L399.681 414.38L447.222 392.323C447.55 392.163 447.882 392.007 448.216 391.857C476.604 379.111 517.101 407.987 538.67 456.353C560.238 504.719 554.71 554.259 526.322 567.005C526.176 567.071 526.03 567.135 525.883 567.198L479.248 588.866L453.824 533.112Z" fill="black"/>
<path d="M388.095 524.337C409.647 572.665 450.132 601.51 478.52 588.765C506.908 576.019 512.449 526.51 490.897 478.182C469.345 429.855 427.642 398.408 399.254 411.153C370.866 423.898 366.543 476.01 388.095 524.337Z" fill="black"/>
<g filter="url(#filter3_i_3_244)">
<ellipse cx="39.6239" cy="69.272" rx="39.6239" ry="69.272" transform="matrix(-0.939692 0.3422 0.316258 0.948659 454.255 423.196)" fill="url(#paint1_linear_3_244)"/>
</g>
<g filter="url(#filter4_di_3_244)">
<path fill-rule="evenodd" clip-rule="evenodd" d="M412.072 514.463C420.868 538.936 438.501 554.876 452.976 551.706L444.491 526.845C437.98 527.212 430.522 520.338 426.322 509.931L412.072 514.463ZM410.235 508.771C403.39 484.904 407.561 462.243 419.987 455.057L428.471 479.914C423.462 483.949 421.799 493.754 424.463 504.246L410.235 508.771ZM451.794 495.554C447.798 485.189 440.574 478.163 434.112 477.995L425.584 453.01C440.054 450.447 457.457 466.572 466.039 491.023L451.794 495.554ZM453.565 501.266L467.834 496.728C474.311 519.97 470.346 541.943 458.495 549.431L449.965 524.44C454.427 520.232 455.899 511.1 453.565 501.266Z" fill="#474747"/>
</g>
<path fill-rule="evenodd" clip-rule="evenodd" d="M62.6023 277.451L98.3046 260.887L98.3145 260.909C98.5437 260.797 98.775 260.689 99.0084 260.585C120.275 251.037 150.615 272.67 166.775 308.901C182.935 345.133 178.795 382.244 157.528 391.792C157.225 391.928 156.92 392.057 156.613 392.181L122.209 408.165L103.088 366.235C98.0711 359.583 93.5303 351.926 89.7609 343.475C86.2836 335.678 83.7463 327.841 82.1173 320.247L62.6023 277.451Z" fill="black"/>
<ellipse cx="42.2264" cy="71.7476" rx="42.2264" ry="71.7476" transform="matrix(-0.911904 0.409419 0.407458 0.913666 102.129 259.824)" fill="black"/>
<g filter="url(#filter5_i_3_244)">
<ellipse cx="31.6712" cy="53.8132" rx="31.6712" ry="53.8132" transform="matrix(-0.911904 0.409419 0.407458 0.913666 98.5908 280.565)" fill="url(#paint2_linear_3_244)"/>
</g>
<g filter="url(#filter6_di_3_244)">
<path fill-rule="evenodd" clip-rule="evenodd" d="M93.0217 304.424C97.5453 307.119 102.004 311.093 106.033 316.086L96.797 332.138C95.6053 330.74 94.327 329.569 93.0217 328.666L93.0217 304.424ZM93.0217 358.766C94.9174 359.487 96.7814 359.585 98.4347 358.933L111.949 382.417C111.282 382.847 110.583 383.228 109.851 383.557C104.795 385.827 98.9171 385.272 93.0217 382.464L93.0217 358.766ZM91.0323 381.431L91.0323 357.789C89.4883 356.861 87.9647 355.548 86.5582 353.922L77.5055 369.654C81.6975 374.775 86.3419 378.797 91.0323 381.431ZM91.0323 327.511L91.0323 303.324C84.8716 300.179 78.6908 299.466 73.4073 301.838C71.9292 302.502 70.5837 303.379 69.3736 304.445L82.9956 328.115C83.4631 327.705 83.9824 327.367 84.5527 327.111C86.5001 326.237 88.7617 326.443 91.0323 327.511ZM67.6279 353.473C70.0371 358.875 72.9529 363.756 76.1765 367.974L85.2293 352.241C84.1361 350.731 83.1447 349.021 82.3099 347.149C82.2287 346.967 82.1496 346.785 82.0726 346.602L66.4919 350.791C66.8508 351.685 67.2295 352.58 67.6279 353.473ZM98.1181 333.832L107.354 317.78C110.47 321.915 113.289 326.672 115.63 331.922C116.11 332.998 116.562 334.076 116.984 335.154L101.202 339.397C101.117 339.193 101.029 338.989 100.938 338.786C100.129 336.971 99.172 335.308 98.1181 333.832ZM65.7703 348.923C62.9893 341.429 61.5894 334.006 61.4978 327.303L79.9696 338.004C80.1018 340.132 80.5593 342.418 81.3563 344.733L65.7703 348.923ZM101.914 341.268C102.86 344.038 103.32 346.765 103.319 349.229L121.753 359.907C121.909 352.904 120.584 345.014 117.691 337.026L101.914 341.268ZM121.65 362.149L103.183 351.451C102.832 354.232 101.803 356.519 100.143 357.912L113.561 381.228C118.323 377.243 121.072 370.413 121.65 362.149ZM61.5182 325.014L79.9566 335.695C80.0836 333.359 80.65 331.304 81.6327 329.737L67.9124 305.895C63.9474 310.317 61.7725 317.078 61.5182 325.014Z" fill="#4C4C4C"/>
</g>
<path fill-rule="evenodd" clip-rule="evenodd" d="M62.575 276.705L98.2772 260.14L98.2811 260.149C98.5072 260.039 98.7352 259.933 98.9652 259.83C120.232 250.282 150.572 271.914 166.731 308.146C182.891 344.378 178.751 381.49 157.484 391.037C157.275 391.13 157.066 391.221 156.856 391.309L122.181 407.419L103.076 365.522C98.0467 358.86 93.4947 351.189 89.7176 342.72C86.2327 334.907 83.6919 327.052 82.0634 319.442L62.575 276.705Z" fill="black"/>
<path d="M49.8837 353.365C59.4637 391.833 87.4885 417.922 112.479 411.635C137.469 405.348 149.962 369.067 140.382 330.599C130.802 292.131 102.215 263.965 77.2243 270.252C52.2339 276.538 40.3038 314.897 49.8837 353.365Z" fill="black"/>
<g filter="url(#filter7_i_3_244)">
<ellipse cx="29.6829" cy="51.896" rx="29.6829" ry="51.896" transform="matrix(-0.975616 0.21976 0.192989 0.981187 108.236 287.466)" fill="url(#paint3_linear_3_244)"/>
</g>
<g filter="url(#filter8_di_3_244)">
<path fill-rule="evenodd" clip-rule="evenodd" d="M68.5428 352.712C72.7939 370.104 83.2299 382.559 93.5251 382.871L89.5175 363.237C85.4997 361.98 81.6827 357.196 79.6494 350.688L68.5428 352.712ZM67.3799 346.844C64.7033 329.338 69.3424 313.596 78.354 308.546L82.3628 328.185C79.1328 331.307 77.5292 337.709 78.3951 344.837L67.3799 346.844ZM99.5307 340.986C97.5459 332.896 92.8398 326.985 88.0494 326.256L84.0944 306.88C95.0914 306.353 106.487 319.994 110.536 338.98L99.5307 340.986ZM100.427 346.902L111.526 344.88C113.643 362.163 108.62 377.361 99.3598 381.667L95.4051 362.293C98.8831 359.779 100.832 353.816 100.427 346.902Z" fill="#474747"/>
</g>
<g filter="url(#filter9_ii_3_244)">
<path d="M33.9684 319.9C34.6234 328.401 40.2386 334.667 46.1979 338.727C46.6292 335.53 44.9755 334.095 48.2398 309.897C52.3202 279.65 75.8605 271.19 88.8582 274.035C103.631 277.268 116.859 289.481 124.804 309.896C131.305 326.601 135.182 335.932 140.035 374.711C145.188 381.041 380.078 500.517 379.32 497.786C377.339 490.644 377.29 456.86 384.399 440.387C398.361 408.029 420.157 411.115 431.871 412.905C444.288 414.803 473.144 429.956 488.126 460.449C511.886 508.807 505.978 541.653 511.885 558.933C513.823 564.603 608.316 600.404 641.922 608.838C725.95 633.89 844.633 548.535 867.019 532.004C889.405 515.473 891.227 466.865 887.938 412.898C887.988 381.356 881.24 365.005 876.413 359.971C853.141 335.704 797.671 296.231 762.683 277.575C676.431 183.488 671.022 171.819 641.477 157.455C581.587 128.337 337.731 29.2756 284.113 29.2764C252.431 29.2769 140.892 65.3182 110.764 88.2928C86.6614 106.672 63.574 147.62 51.502 174.033C49.1467 191.493 44.4622 247.189 39.5367 252.533C33.3799 259.214 33.1495 309.273 33.9684 319.9Z" fill="url(#paint4_linear_3_244)"/>
</g>
<mask id="mask0_3_244" style="mask-type:alpha" maskUnits="userSpaceOnUse" x="33" y="29" width="857" height="585">
<path d="M33.9776 319.899C34.6327 328.401 40.2478 334.667 46.2072 338.727C46.6384 335.53 44.9848 334.094 48.249 309.897C52.3294 279.65 75.8697 271.19 88.8674 274.034C103.641 277.267 116.869 289.481 124.814 309.896C131.315 326.601 135.192 335.931 140.044 374.711C145.197 381.04 380.087 500.517 379.33 497.786C377.348 490.644 377.299 456.859 384.408 440.386C398.371 408.029 420.166 411.114 431.88 412.905C444.298 414.803 473.153 429.956 488.135 460.449C511.895 508.806 505.987 541.652 511.894 558.933C513.832 564.603 608.325 600.404 641.931 608.838C725.959 633.89 844.643 548.535 867.029 532.004C889.415 515.473 891.237 466.865 887.947 412.897C887.997 381.356 881.249 365.004 876.422 359.971C853.151 335.704 797.68 296.231 762.693 277.575C676.44 183.487 668.669 171.618 625.693 150.724C565.802 121.607 337.74 29.2753 284.122 29.2761C252.441 29.2766 140.902 65.3179 110.773 88.2925C86.6706 106.672 63.5833 147.619 51.5112 174.033C49.1559 191.492 44.4714 247.189 39.5459 252.533C33.3891 259.214 33.1587 309.273 33.9776 319.899Z" fill="url(#paint5_linear_3_244)"/>
</mask>
<g mask="url(#mask0_3_244)">
<g filter="url(#filter10_dii_3_244)">
<path d="M702.3 474.121C679.291 475.775 636.776 480.525 594.893 454.721C592.255 453.096 587.997 456.811 589.353 459.596C596.765 474.814 606.021 494.659 614.534 499.103C628.984 506.648 670.439 520.839 710.166 513.686C710.301 513.662 710.433 513.645 710.57 513.65C714.792 513.796 725.568 522.209 735.134 525.898C750.159 530.074 815.937 494.351 832.518 484.977C867.523 465.187 879.483 450.682 881.347 446.84C884.258 440.84 882.298 428.44 882.877 424.571C883.371 421.271 886.564 414.086 887.494 412.041C887.662 411.673 887.749 411.288 887.745 410.884C887.717 407.841 887.457 393.895 885.035 382.834C884.991 382.635 884.969 382.431 884.968 382.227C884.882 362.075 876.336 348.351 876.339 358.875C876.339 373.445 872.566 390.953 861.985 399.319C861.817 399.452 861.733 399.534 861.563 399.665C856.119 403.842 733.498 471.878 702.3 474.121Z" fill="#141414"/>
</g>
<g filter="url(#filter11_dii_3_244)">
<path d="M702.309 474.122C679.299 475.775 636.783 480.521 594.896 454.715C592.258 453.09 588 456.805 589.357 459.59C596.769 474.808 606.028 494.653 614.541 499.098C628.993 506.643 670.45 520.836 710.178 513.687C710.313 513.663 710.445 513.646 710.582 513.651C714.804 513.797 725.582 522.21 735.148 525.9C750.174 530.076 815.952 494.36 832.533 484.988C867.537 465.201 879.497 450.697 881.361 446.856C884.272 440.856 882.31 428.456 882.889 424.587C883.383 421.288 886.576 414.103 887.506 412.058C887.673 411.69 887.76 411.305 887.756 410.901C887.728 407.859 887.467 393.913 885.044 382.853C885 382.653 884.978 382.449 884.977 382.245C884.889 362.094 876.342 348.37 876.346 358.894C876.347 373.463 872.575 390.97 861.995 399.335C861.827 399.468 861.743 399.55 861.573 399.681C856.129 403.857 733.508 471.882 702.309 474.122Z" fill="#141414"/>
</g>
<mask id="mask1_3_244" style="mask-type:alpha" maskUnits="userSpaceOnUse" x="589" y="355" width="299" height="172">
<path d="M702.309 474.122C679.299 475.775 636.783 480.521 594.896 454.715C592.258 453.09 588 456.805 589.357 459.59C596.769 474.808 606.028 494.653 614.541 499.098C628.993 506.643 670.45 520.836 710.178 513.687C710.313 513.663 710.445 513.646 710.582 513.651C714.804 513.797 725.582 522.21 735.148 525.9C750.174 530.076 815.952 494.36 832.533 484.988C867.537 465.201 881.027 449.584 882.891 445.743C885.802 439.743 882.31 427.761 882.889 423.891C883.377 420.635 886.493 414.087 887.468 412.094C887.659 411.705 887.76 411.287 887.756 410.854C887.726 407.717 887.455 393.857 885.044 382.853C885 382.653 884.978 382.449 884.977 382.245C884.889 362.094 876.342 348.37 876.346 358.894C876.347 373.463 872.575 390.97 861.995 399.335C861.827 399.468 861.743 399.55 861.573 399.681C856.129 403.857 733.508 471.882 702.309 474.122Z" fill="#211F1F"/>
</mask>
<g mask="url(#mask1_3_244)">
<g filter="url(#filter12_dii_3_244)">
<path d="M702.309 474.122C679.299 475.775 636.783 480.521 594.896 454.715C592.258 453.09 588 456.805 589.357 459.59C596.769 474.808 606.028 494.653 614.541 499.098C628.993 506.643 670.45 520.836 710.178 513.687C710.313 513.663 710.445 513.646 710.582 513.651C714.804 513.797 725.582 522.21 735.148 525.9C750.174 530.076 815.952 494.36 832.533 484.988C867.537 465.201 878.801 451.114 880.665 447.273C883.576 441.274 881.614 427.9 882.194 424.03C882.678 420.797 886.24 414.221 887.397 412.146C887.634 411.723 887.76 411.25 887.755 410.765C887.72 407.463 887.433 393.756 885.044 382.853C885 382.653 884.978 382.449 884.977 382.245C884.889 362.094 876.342 348.37 876.346 358.894C876.347 373.463 872.575 390.97 861.995 399.335C861.827 399.468 861.743 399.55 861.573 399.681C856.129 403.857 733.508 471.882 702.309 474.122Z" fill="#141414"/>
</g>
<g filter="url(#filter13_d_3_244)">
<path d="M874.861 366.691C875.013 366.917 875.178 367.17 875.353 367.45C876.185 368.781 877.23 370.693 878.083 373.01C879.79 377.646 880.701 383.822 877.705 390.246C876.836 392.108 875.175 394.125 873.29 395.296C871.424 396.455 869.576 396.673 867.973 395.508C867.04 394.83 865.776 394.287 864.484 393.849C863.173 393.405 861.749 393.042 860.446 392.757C859.336 392.514 858.299 392.325 857.476 392.188L874.861 366.691Z" stroke="white" stroke-opacity="0.5" stroke-width="2.3206"/>
</g>
<g filter="url(#filter14_d_3_244)">
<path d="M708.172 469.71C708.629 471.941 708.878 474.912 708.113 477.989C707.355 481.037 705.592 484.246 701.92 486.996C698.224 489.764 692.526 492.118 683.83 493.285C678.658 493.979 671.51 493.953 664.167 492.559C656.82 491.164 649.378 488.42 643.531 483.758C640.364 481.232 636.488 476.257 633.34 471.783C631.783 469.57 630.432 467.521 629.47 466.025C629.41 465.931 629.354 465.838 629.297 465.75L707.404 466.928C707.419 466.97 707.436 467.014 707.452 467.06C707.669 467.688 707.944 468.6 708.172 469.71Z" stroke="white" stroke-opacity="0.5" stroke-width="2.78472"/>
</g>
</g>
<g filter="url(#filter15_ddi_3_244)">
<path d="M525.941 376.349C505.051 367.701 480.469 293.62 454.545 248.481C452.765 245.383 454.095 241.403 457.412 240.074L646.549 164.285C647.982 163.71 649.566 163.769 650.844 164.635C657.026 168.828 678.575 186.093 734.164 251.696C751.208 271.811 753.72 274.31 762.248 283.656C763.516 285.045 758.972 291.651 754.534 295.311C736.277 310.363 576.129 397.126 525.941 376.349Z" fill="url(#paint6_linear_3_244)"/>
</g>
<g filter="url(#filter16_di_3_244)">
<path d="M424.461 249.936C392.59 232.633 318.194 197.407 295.853 186.883C292.561 185.332 288.708 187.255 288.01 190.827C284.187 210.404 274.106 264.596 279.101 267.359C394.861 331.421 433.883 350.465 439.933 353.367C450.096 358.244 474.395 373.685 470.09 361.136C463.362 341.53 443.751 260.408 424.461 249.936Z" fill="url(#paint7_linear_3_244)"/>
</g>
<g filter="url(#filter17_f_3_244)">
<path d="M598.568 445.299C552.5 425.574 526.166 399.848 498.06 376.456C580.287 398.124 752.465 445.777 749.898 449.3C746.689 453.705 734.595 459.183 693.976 463.175C653.985 467.106 603.842 447.558 598.568 445.299Z" fill="url(#paint8_linear_3_244)" fill-opacity="0.21"/>
</g>
<path d="M680.674 336.699L530.333 209.551C516.352 215.397 472.174 233.745 465.693 236.181C457.295 239.335 453.7 242.033 453.7 242.033C452.092 243.643 450.933 242.041 453.7 247.008C458.673 255.933 465.799 270.705 476.076 292.512C494.21 330.993 511.456 372.887 527.116 377.521C547.883 383.666 581.569 375.413 608.428 366.548C632.437 358.623 662.866 343.937 680.674 336.699Z" fill="#C4C4C4" fill-opacity="0.2"/>
<g filter="url(#filter18_di_3_244)">
<path d="M306.402 320.671C306.402 320.101 306.077 319.58 305.565 319.331L284.598 309.132C283.612 308.653 282.468 309.371 282.468 310.467L282.468 314.973C282.468 315.544 282.794 316.065 283.308 316.313L304.274 326.471C305.259 326.948 306.402 326.231 306.402 325.135L306.402 320.671Z" fill="#323232"/>
</g>
<g filter="url(#filter19_di_3_244)">
<path d="M230.092 283.369C230.092 282.799 229.766 282.278 229.254 282.029L208.287 271.83C207.302 271.351 206.157 272.068 206.157 273.165L206.158 277.67C206.158 278.241 206.484 278.762 206.997 279.011L227.964 289.169C228.949 289.646 230.092 288.928 230.092 287.833L230.092 283.369Z" fill="#323232"/>
</g>
<g filter="url(#filter20_di_3_244)">
<path d="M127.875 105.013L261.882 170.783C264.35 171.994 265.591 174.809 264.883 177.465C262.023 188.185 255.123 216.595 252.248 250.787C251.818 255.901 125.929 194.277 111.46 182.585C96.3654 170.388 108.031 129.128 120.852 107.029C122.268 104.589 125.342 103.77 127.875 105.013Z" fill="url(#paint9_linear_3_244)"/>
</g>
<g filter="url(#filter21_di_3_244)">
<path d="M98.2915 124.347C110.767 103.288 112.044 95.6595 104.079 94.4174C93.5138 100.187 62.4481 143.164 57.1671 162.756C56.1646 166.476 64.0847 165.215 72.7625 159.085C81.4403 152.955 82.6966 150.671 98.2915 124.347Z" fill="url(#paint10_linear_3_244)"/>
</g>
<g filter="url(#filter22_f_3_244)">
<path d="M89.5895 241.305L87.2914 240.136C88.0651 240.506 88.8311 240.896 89.5895 241.305L414.5 406.602C405.773 410.205 378.886 425.387 378.886 462.276L146.278 344.804C146.841 332.086 128.019 262.039 89.5895 241.305Z" fill="url(#paint11_linear_3_244)"/>
</g>
</g>
<defs>
<filter id="filter0_f_3_244" x="1.33514e-05" y="239.198" width="894.941" height="446.158" filterUnits="userSpaceOnUse" color-interpolation-filters="sRGB">
<feFlood flood-opacity="0" result="BackgroundImageFix"/>
<feBlend mode="normal" in="SourceGraphic" in2="BackgroundImageFix" result="shape"/>
<feGaussianBlur stdDeviation="8.67815" result="effect1_foregroundBlur_3_244"/>
</filter>
<filter id="filter1_i_3_244" x="390.048" y="434.583" width="96.8138" height="135.785" filterUnits="userSpaceOnUse" color-interpolation-filters="sRGB">
<feFlood flood-opacity="0" result="BackgroundImageFix"/>
<feBlend mode="normal" in="SourceGraphic" in2="BackgroundImageFix" result="shape"/>
<feColorMatrix in="SourceAlpha" type="matrix" values="0 0 0 0 0 0 0 0 0 0 0 0 0 0 0 0 0 0 127 0" result="hardAlpha"/>
<feMorphology radius="0.995302" operator="erode" in="SourceAlpha" result="effect1_innerShadow_3_244"/>
<feOffset/>
<feGaussianBlur stdDeviation="0.497651"/>
<feComposite in2="hardAlpha" operator="arithmetic" k2="-1" k3="1"/>
<feColorMatrix type="matrix" values="0 0 0 0 0 0 0 0 0 0 0 0 0 0 0 0 0 0 0.25 0"/>
<feBlend mode="normal" in2="shape" result="effect1_innerShadow_3_244"/>
</filter>
<filter id="filter2_di_3_244" x="395.215" y="445.852" width="84.0379" height="115.031" filterUnits="userSpaceOnUse" color-interpolation-filters="sRGB">
<feFlood flood-opacity="0" result="BackgroundImageFix"/>
<feColorMatrix in="SourceAlpha" type="matrix" values="0 0 0 0 0 0 0 0 0 0 0 0 0 0 0 0 0 0 127 0" result="hardAlpha"/>
<feOffset dy="0.398121"/>
<feGaussianBlur stdDeviation="0.298591"/>
<feColorMatrix type="matrix" values="0 0 0 0 1 0 0 0 0 1 0 0 0 0 1 0 0 0 0.41 0"/>
<feBlend mode="normal" in2="BackgroundImageFix" result="effect1_dropShadow_3_244"/>
<feBlend mode="normal" in="SourceGraphic" in2="effect1_dropShadow_3_244" result="shape"/>
<feColorMatrix in="SourceAlpha" type="matrix" values="0 0 0 0 0 0 0 0 0 0 0 0 0 0 0 0 0 0 127 0" result="hardAlpha"/>
<feOffset dx="-2.9859" dy="1.9906"/>
<feGaussianBlur stdDeviation="1.49295"/>
<feComposite in2="hardAlpha" operator="arithmetic" k2="-1" k3="1"/>
<feColorMatrix type="matrix" values="0 0 0 0 0 0 0 0 0 0 0 0 0 0 0 0 0 0 0.25 0"/>
<feBlend mode="normal" in2="shape" result="effect2_innerShadow_3_244"/>
</filter>
<filter id="filter3_i_3_244" x="395.721" y="435.358" width="86.4162" height="134.226" filterUnits="userSpaceOnUse" color-interpolation-filters="sRGB">
<feFlood flood-opacity="0" result="BackgroundImageFix"/>
<feBlend mode="normal" in="SourceGraphic" in2="BackgroundImageFix" result="shape"/>
<feColorMatrix in="SourceAlpha" type="matrix" values="0 0 0 0 0 0 0 0 0 0 0 0 0 0 0 0 0 0 127 0" result="hardAlpha"/>
<feMorphology radius="0.730773" operator="erode" in="SourceAlpha" result="effect1_innerShadow_3_244"/>
<feOffset/>
<feGaussianBlur stdDeviation="0.365387"/>
<feComposite in2="hardAlpha" operator="arithmetic" k2="-1" k3="1"/>
<feColorMatrix type="matrix" values="0 0 0 0 0 0 0 0 0 0 0 0 0 0 0 0 0 0 0.25 0"/>
<feBlend mode="normal" in2="shape" result="effect1_innerShadow_3_244"/>
</filter>
<filter id="filter4_di_3_244" x="403.971" y="452.544" width="67.5542" height="101.553" filterUnits="userSpaceOnUse" color-interpolation-filters="sRGB">
<feFlood flood-opacity="0" result="BackgroundImageFix"/>
<feColorMatrix in="SourceAlpha" type="matrix" values="0 0 0 0 0 0 0 0 0 0 0 0 0 0 0 0 0 0 127 0" result="hardAlpha"/>
<feOffset dy="0.398121"/>
<feGaussianBlur stdDeviation="0.298591"/>
<feColorMatrix type="matrix" values="0 0 0 0 1 0 0 0 0 1 0 0 0 0 1 0 0 0 0.41 0"/>
<feBlend mode="normal" in2="BackgroundImageFix" result="effect1_dropShadow_3_244"/>
<feBlend mode="normal" in="SourceGraphic" in2="effect1_dropShadow_3_244" result="shape"/>
<feColorMatrix in="SourceAlpha" type="matrix" values="0 0 0 0 0 0 0 0 0 0 0 0 0 0 0 0 0 0 127 0" result="hardAlpha"/>
<feOffset dx="-2.9859" dy="1.9906"/>
<feGaussianBlur stdDeviation="1.49295"/>
<feComposite in2="hardAlpha" operator="arithmetic" k2="-1" k3="1"/>
<feColorMatrix type="matrix" values="0 0 0 0 0 0 0 0 0 0 0 0 0 0 0 0 0 0 0.25 0"/>
<feBlend mode="normal" in2="shape" result="effect2_innerShadow_3_244"/>
</filter>
<filter id="filter5_i_3_244" x="55.3728" y="291.838" width="72.5269" height="101.722" filterUnits="userSpaceOnUse" color-interpolation-filters="sRGB">
<feFlood flood-opacity="0" result="BackgroundImageFix"/>
<feBlend mode="normal" in="SourceGraphic" in2="BackgroundImageFix" result="shape"/>
<feColorMatrix in="SourceAlpha" type="matrix" values="0 0 0 0 0 0 0 0 0 0 0 0 0 0 0 0 0 0 127 0" result="hardAlpha"/>
<feMorphology radius="0.995302" operator="erode" in="SourceAlpha" result="effect1_innerShadow_3_244"/>
<feOffset/>
<feGaussianBlur stdDeviation="0.497651"/>
<feComposite in2="hardAlpha" operator="arithmetic" k2="-1" k3="1"/>
<feColorMatrix type="matrix" values="0 0 0 0 0 0 0 0 0 0 0 0 0 0 0 0 0 0 0.25 0"/>
<feBlend mode="normal" in2="shape" result="effect1_innerShadow_3_244"/>
</filter>
<filter id="filter6_di_3_244" x="58.5119" y="300.232" width="63.8503" height="86.7234" filterUnits="userSpaceOnUse" color-interpolation-filters="sRGB">
<feFlood flood-opacity="0" result="BackgroundImageFix"/>
<feColorMatrix in="SourceAlpha" type="matrix" values="0 0 0 0 0 0 0 0 0 0 0 0 0 0 0 0 0 0 127 0" result="hardAlpha"/>
<feOffset dy="0.398121"/>
<feGaussianBlur stdDeviation="0.298591"/>
<feColorMatrix type="matrix" values="0 0 0 0 1 0 0 0 0 1 0 0 0 0 1 0 0 0 0.41 0"/>
<feBlend mode="normal" in2="BackgroundImageFix" result="effect1_dropShadow_3_244"/>
<feBlend mode="normal" in="SourceGraphic" in2="effect1_dropShadow_3_244" result="shape"/>
<feColorMatrix in="SourceAlpha" type="matrix" values="0 0 0 0 0 0 0 0 0 0 0 0 0 0 0 0 0 0 127 0" result="hardAlpha"/>
<feOffset dx="-2.9859" dy="1.9906"/>
<feGaussianBlur stdDeviation="1.49295"/>
<feComposite in2="hardAlpha" operator="arithmetic" k2="-1" k3="1"/>
<feColorMatrix type="matrix" values="0 0 0 0 0 0 0 0 0 0 0 0 0 0 0 0 0 0 0.25 0"/>
<feBlend mode="normal" in2="shape" result="effect2_innerShadow_3_244"/>
</filter>
<filter id="filter7_i_3_244" x="58.6415" y="293.568" width="61.3008" height="102.683" filterUnits="userSpaceOnUse" color-interpolation-filters="sRGB">
<feFlood flood-opacity="0" result="BackgroundImageFix"/>
<feBlend mode="normal" in="SourceGraphic" in2="BackgroundImageFix" result="shape"/>
<feColorMatrix in="SourceAlpha" type="matrix" values="0 0 0 0 0 0 0 0 0 0 0 0 0 0 0 0 0 0 127 0" result="hardAlpha"/>
<feMorphology radius="0.730773" operator="erode" in="SourceAlpha" result="effect1_innerShadow_3_244"/>
<feOffset/>
<feGaussianBlur stdDeviation="0.365387"/>
<feComposite in2="hardAlpha" operator="arithmetic" k2="-1" k3="1"/>
<feColorMatrix type="matrix" values="0 0 0 0 0 0 0 0 0 0 0 0 0 0 0 0 0 0 0.25 0"/>
<feBlend mode="normal" in2="shape" result="effect1_innerShadow_3_244"/>
</filter>
<filter id="filter8_di_3_244" x="63.6404" y="306.666" width="48.9635" height="78.1955" filterUnits="userSpaceOnUse" color-interpolation-filters="sRGB">
<feFlood flood-opacity="0" result="BackgroundImageFix"/>
<feColorMatrix in="SourceAlpha" type="matrix" values="0 0 0 0 0 0 0 0 0 0 0 0 0 0 0 0 0 0 127 0" result="hardAlpha"/>
<feOffset dy="0.398121"/>
<feGaussianBlur stdDeviation="0.298591"/>
<feColorMatrix type="matrix" values="0 0 0 0 1 0 0 0 0 1 0 0 0 0 1 0 0 0 0.41 0"/>
<feBlend mode="normal" in2="BackgroundImageFix" result="effect1_dropShadow_3_244"/>
<feBlend mode="normal" in="SourceGraphic" in2="effect1_dropShadow_3_244" result="shape"/>
<feColorMatrix in="SourceAlpha" type="matrix" values="0 0 0 0 0 0 0 0 0 0 0 0 0 0 0 0 0 0 127 0" result="hardAlpha"/>
<feOffset dx="-2.9859" dy="1.9906"/>
<feGaussianBlur stdDeviation="1.49295"/>
<feComposite in2="hardAlpha" operator="arithmetic" k2="-1" k3="1"/>
<feColorMatrix type="matrix" values="0 0 0 0 0 0 0 0 0 0 0 0 0 0 0 0 0 0 0.25 0"/>
<feBlend mode="normal" in2="shape" result="effect2_innerShadow_3_244"/>
</filter>
<filter id="filter9_ii_3_244" x="33.6271" y="21.8457" width="861.156" height="591.562" filterUnits="userSpaceOnUse" color-interpolation-filters="sRGB">
<feFlood flood-opacity="0" result="BackgroundImageFix"/>
<feBlend mode="normal" in="SourceGraphic" in2="BackgroundImageFix" result="shape"/>
<feColorMatrix in="SourceAlpha" type="matrix" values="0 0 0 0 0 0 0 0 0 0 0 0 0 0 0 0 0 0 127 0" result="hardAlpha"/>
<feOffset dx="5.57307" dy="-7.43076"/>
<feGaussianBlur stdDeviation="22.2923"/>
<feComposite in2="hardAlpha" operator="arithmetic" k2="-1" k3="1"/>
<feColorMatrix type="matrix" values="0 0 0 0 0 0 0 0 0 0 0 0 0 0 0 0 0 0 0.07 0"/>
<feBlend mode="normal" in2="shape" result="effect1_innerShadow_3_244"/>
<feColorMatrix in="SourceAlpha" type="matrix" values="0 0 0 0 0 0 0 0 0 0 0 0 0 0 0 0 0 0 127 0" result="hardAlpha"/>
<feOffset dy="-0.928845"/>
<feGaussianBlur stdDeviation="1.85769"/>
<feComposite in2="hardAlpha" operator="arithmetic" k2="-1" k3="1"/>
<feColorMatrix type="matrix" values="0 0 0 0 0 0 0 0 0 0 0 0 0 0 0 0 0 0 0.25 0"/>
<feBlend mode="normal" in2="effect1_innerShadow_3_244" result="effect2_innerShadow_3_244"/>
</filter>
<filter id="filter10_dii_3_244" x="586.118" y="352.96" width="304.602" height="176.945" filterUnits="userSpaceOnUse" color-interpolation-filters="sRGB">
<feFlood flood-opacity="0" result="BackgroundImageFix"/>
<feColorMatrix in="SourceAlpha" type="matrix" values="0 0 0 0 0 0 0 0 0 0 0 0 0 0 0 0 0 0 127 0" result="hardAlpha"/>
<feOffset dy="0.694325"/>
<feGaussianBlur stdDeviation="1.48756"/>
<feColorMatrix type="matrix" values="0 0 0 0 0 0 0 0 0 0 0 0 0 0 0 0 0 0 0.63 0"/>
<feBlend mode="normal" in2="BackgroundImageFix" result="effect1_dropShadow_3_244"/>
<feBlend mode="normal" in="SourceGraphic" in2="effect1_dropShadow_3_244" result="shape"/>
<feColorMatrix in="SourceAlpha" type="matrix" values="0 0 0 0 0 0 0 0 0 0 0 0 0 0 0 0 0 0 127 0" result="hardAlpha"/>
<feOffset dy="0.694325"/>
<feGaussianBlur stdDeviation="0.694325"/>
<feComposite in2="hardAlpha" operator="arithmetic" k2="-1" k3="1"/>
<feColorMatrix type="matrix" values="0 0 0 0 0 0 0 0 0 0 0 0 0 0 0 0 0 0 0.25 0"/>
<feBlend mode="normal" in2="shape" result="effect2_innerShadow_3_244"/>
<feColorMatrix in="SourceAlpha" type="matrix" values="0 0 0 0 0 0 0 0 0 0 0 0 0 0 0 0 0 0 127 0" result="hardAlpha"/>
<feOffset dy="-0.694325"/>
<feGaussianBlur stdDeviation="0.694325"/>
<feComposite in2="hardAlpha" operator="arithmetic" k2="-1" k3="1"/>
<feColorMatrix type="matrix" values="0 0 0 0 0 0 0 0 0 0 0 0 0 0 0 0 0 0 0.25 0"/>
<feBlend mode="normal" in2="effect2_innerShadow_3_244" result="effect3_innerShadow_3_244"/>
</filter>
<filter id="filter11_dii_3_244" x="586.121" y="352.979" width="304.61" height="176.929" filterUnits="userSpaceOnUse" color-interpolation-filters="sRGB">
<feFlood flood-opacity="0" result="BackgroundImageFix"/>
<feColorMatrix in="SourceAlpha" type="matrix" values="0 0 0 0 0 0 0 0 0 0 0 0 0 0 0 0 0 0 127 0" result="hardAlpha"/>
<feOffset dy="0.694325"/>
<feGaussianBlur stdDeviation="1.48756"/>
<feColorMatrix type="matrix" values="0 0 0 0 0 0 0 0 0 0 0 0 0 0 0 0 0 0 0.63 0"/>
<feBlend mode="normal" in2="BackgroundImageFix" result="effect1_dropShadow_3_244"/>
<feBlend mode="normal" in="SourceGraphic" in2="effect1_dropShadow_3_244" result="shape"/>
<feColorMatrix in="SourceAlpha" type="matrix" values="0 0 0 0 0 0 0 0 0 0 0 0 0 0 0 0 0 0 127 0" result="hardAlpha"/>
<feOffset dy="0.694325"/>
<feGaussianBlur stdDeviation="0.694325"/>
<feComposite in2="hardAlpha" operator="arithmetic" k2="-1" k3="1"/>
<feColorMatrix type="matrix" values="0 0 0 0 0 0 0 0 0 0 0 0 0 0 0 0 0 0 0.25 0"/>
<feBlend mode="normal" in2="shape" result="effect2_innerShadow_3_244"/>
<feColorMatrix in="SourceAlpha" type="matrix" values="0 0 0 0 0 0 0 0 0 0 0 0 0 0 0 0 0 0 127 0" result="hardAlpha"/>
<feOffset dy="-0.694325"/>
<feGaussianBlur stdDeviation="0.694325"/>
<feComposite in2="hardAlpha" operator="arithmetic" k2="-1" k3="1"/>
<feColorMatrix type="matrix" values="0 0 0 0 0 0 0 0 0 0 0 0 0 0 0 0 0 0 0.25 0"/>
<feBlend mode="normal" in2="effect2_innerShadow_3_244" result="effect3_innerShadow_3_244"/>
</filter>
<filter id="filter12_dii_3_244" x="586.121" y="352.979" width="304.609" height="176.929" filterUnits="userSpaceOnUse" color-interpolation-filters="sRGB">
<feFlood flood-opacity="0" result="BackgroundImageFix"/>
<feColorMatrix in="SourceAlpha" type="matrix" values="0 0 0 0 0 0 0 0 0 0 0 0 0 0 0 0 0 0 127 0" result="hardAlpha"/>
<feOffset dy="0.694325"/>
<feGaussianBlur stdDeviation="1.48756"/>
<feColorMatrix type="matrix" values="0 0 0 0 0 0 0 0 0 0 0 0 0 0 0 0 0 0 0.63 0"/>
<feBlend mode="normal" in2="BackgroundImageFix" result="effect1_dropShadow_3_244"/>
<feBlend mode="normal" in="SourceGraphic" in2="effect1_dropShadow_3_244" result="shape"/>
<feColorMatrix in="SourceAlpha" type="matrix" values="0 0 0 0 0 0 0 0 0 0 0 0 0 0 0 0 0 0 127 0" result="hardAlpha"/>
<feOffset dy="0.694325"/>
<feGaussianBlur stdDeviation="0.694325"/>
<feComposite in2="hardAlpha" operator="arithmetic" k2="-1" k3="1"/>
<feColorMatrix type="matrix" values="0 0 0 0 0 0 0 0 0 0 0 0 0 0 0 0 0 0 0.25 0"/>
<feBlend mode="normal" in2="shape" result="effect2_innerShadow_3_244"/>
<feColorMatrix in="SourceAlpha" type="matrix" values="0 0 0 0 0 0 0 0 0 0 0 0 0 0 0 0 0 0 127 0" result="hardAlpha"/>
<feOffset dy="-0.694325"/>
<feGaussianBlur stdDeviation="0.694325"/>
<feComposite in2="hardAlpha" operator="arithmetic" k2="-1" k3="1"/>
<feColorMatrix type="matrix" values="0 0 0 0 0 0 0 0 0 0 0 0 0 0 0 0 0 0 0.25 0"/>
<feBlend mode="normal" in2="effect2_innerShadow_3_244" result="effect3_innerShadow_3_244"/>
</filter>
<filter id="filter13_d_3_244" x="855.478" y="364.675" width="27.7119" height="35.1341" filterUnits="userSpaceOnUse" color-interpolation-filters="sRGB">
<feFlood flood-opacity="0" result="BackgroundImageFix"/>
<feColorMatrix in="SourceAlpha" type="matrix" values="0 0 0 0 0 0 0 0 0 0 0 0 0 0 0 0 0 0 127 0" result="hardAlpha"/>
<feOffset dx="1.39236" dy="1.39236"/>
<feGaussianBlur stdDeviation="0.486926"/>
<feColorMatrix type="matrix" values="0 0 0 0 1 0 0 0 0 1 0 0 0 0 1 0 0 0 0.24 0"/>
<feBlend mode="normal" in2="BackgroundImageFix" result="effect1_dropShadow_3_244"/>
<feBlend mode="normal" in="SourceGraphic" in2="effect1_dropShadow_3_244" result="shape"/>
</filter>
<filter id="filter14_d_3_244" x="625.36" y="464.32" width="87.8848" height="35.4444" filterUnits="userSpaceOnUse" color-interpolation-filters="sRGB">
<feFlood flood-opacity="0" result="BackgroundImageFix"/>
<feColorMatrix in="SourceAlpha" type="matrix" values="0 0 0 0 0 0 0 0 0 0 0 0 0 0 0 0 0 0 127 0" result="hardAlpha"/>
<feOffset dx="0.928239" dy="2.3206"/>
<feGaussianBlur stdDeviation="1.1603"/>
<feColorMatrix type="matrix" values="0 0 0 0 1 0 0 0 0 1 0 0 0 0 1 0 0 0 0.24 0"/>
<feBlend mode="normal" in2="BackgroundImageFix" result="effect1_dropShadow_3_244"/>
<feBlend mode="normal" in="SourceGraphic" in2="effect1_dropShadow_3_244" result="shape"/>
</filter>
<filter id="filter15_ddi_3_244" x="450.782" y="161.681" width="313.168" height="220.092" filterUnits="userSpaceOnUse" color-interpolation-filters="sRGB">
<feFlood flood-opacity="0" result="BackgroundImageFix"/>
<feColorMatrix in="SourceAlpha" type="matrix" values="0 0 0 0 0 0 0 0 0 0 0 0 0 0 0 0 0 0 127 0" result="hardAlpha"/>
<feOffset dx="-1.48533" dy="0.742667"/>
<feGaussianBlur stdDeviation="0.742667"/>
<feColorMatrix type="matrix" values="0 0 0 0 1 0 0 0 0 1 0 0 0 0 1 0 0 0 0.28 0"/>
<feBlend mode="normal" in2="BackgroundImageFix" result="effect1_dropShadow_3_244"/>
<feColorMatrix in="SourceAlpha" type="matrix" values="0 0 0 0 0 0 0 0 0 0 0 0 0 0 0 0 0 0 127 0" result="hardAlpha"/>
<feOffset dy="-0.742667"/>
<feGaussianBlur stdDeviation="0.742667"/>
<feColorMatrix type="matrix" values="0 0 0 0 1 0 0 0 0 1 0 0 0 0 1 0 0 0 0.56 0"/>
<feBlend mode="normal" in2="effect1_dropShadow_3_244" result="effect2_dropShadow_3_244"/>
<feBlend mode="normal" in="SourceGraphic" in2="effect2_dropShadow_3_244" result="shape"/>
<feColorMatrix in="SourceAlpha" type="matrix" values="0 0 0 0 0 0 0 0 0 0 0 0 0 0 0 0 0 0 127 0" result="hardAlpha"/>
<feOffset dx="-0.742667" dy="2.228"/>
<feGaussianBlur stdDeviation="1.114"/>
<feComposite in2="hardAlpha" operator="arithmetic" k2="-1" k3="1"/>
<feColorMatrix type="matrix" values="0 0 0 0 0 0 0 0 0 0 0 0 0 0 0 0 0 0 0.75 0"/>
<feBlend mode="normal" in2="shape" result="effect3_innerShadow_3_244"/>
</filter>
<filter id="filter16_di_3_244" x="272.62" y="186.341" width="198.744" height="183.306" filterUnits="userSpaceOnUse" color-interpolation-filters="sRGB">
<feFlood flood-opacity="0" result="BackgroundImageFix"/>
<feColorMatrix in="SourceAlpha" type="matrix" values="0 0 0 0 0 0 0 0 0 0 0 0 0 0 0 0 0 0 127 0" result="hardAlpha"/>
<feOffset dy="0.768015"/>
<feGaussianBlur stdDeviation="0.384007"/>
<feColorMatrix type="matrix" values="0 0 0 0 0.925374 0 0 0 0 0.925374 0 0 0 0 0.925374 0 0 0 0.37 0"/>
<feBlend mode="normal" in2="BackgroundImageFix" result="effect1_dropShadow_3_244"/>
<feBlend mode="normal" in="SourceGraphic" in2="effect1_dropShadow_3_244" result="shape"/>
<feColorMatrix in="SourceAlpha" type="matrix" values="0 0 0 0 0 0 0 0 0 0 0 0 0 0 0 0 0 0 127 0" result="hardAlpha"/>
<feOffset dx="-5.12036" dy="3.70637"/>
<feGaussianBlur stdDeviation="2.56018"/>
<feComposite in2="hardAlpha" operator="arithmetic" k2="-1" k3="1"/>
<feColorMatrix type="matrix" values="0 0 0 0 0 0 0 0 0 0 0 0 0 0 0 0 0 0 0.63 0"/>
<feBlend mode="normal" in2="shape" result="effect2_innerShadow_3_244"/>
</filter>
<filter id="filter17_f_3_244" x="477.265" y="355.662" width="293.455" height="128.829" filterUnits="userSpaceOnUse" color-interpolation-filters="sRGB">
<feFlood flood-opacity="0" result="BackgroundImageFix"/>
<feBlend mode="normal" in="SourceGraphic" in2="BackgroundImageFix" result="shape"/>
<feGaussianBlur stdDeviation="10.3973" result="effect1_foregroundBlur_3_244"/>
</filter>
<filter id="filter18_di_3_244" x="282.099" y="308.244" width="24.6711" height="20.2186" filterUnits="userSpaceOnUse" color-interpolation-filters="sRGB">
<feFlood flood-opacity="0" result="BackgroundImageFix"/>
<feColorMatrix in="SourceAlpha" type="matrix" values="0 0 0 0 0 0 0 0 0 0 0 0 0 0 0 0 0 0 127 0" result="hardAlpha"/>
<feOffset dy="-0.368347"/>
<feGaussianBlur stdDeviation="0.184173"/>
<feColorMatrix type="matrix" values="0 0 0 0 0.78755 0 0 0 0 0.78755 0 0 0 0 0.78755 0 0 0 0.19 0"/>
<feBlend mode="normal" in2="BackgroundImageFix" result="effect1_dropShadow_3_244"/>
<feBlend mode="normal" in="SourceGraphic" in2="effect1_dropShadow_3_244" result="shape"/>
<feColorMatrix in="SourceAlpha" type="matrix" values="0 0 0 0 0 0 0 0 0 0 0 0 0 0 0 0 0 0 127 0" result="hardAlpha"/>
<feOffset dy="1.84173"/>
<feGaussianBlur stdDeviation="0.920867"/>
<feComposite in2="hardAlpha" operator="arithmetic" k2="-1" k3="1"/>
<feColorMatrix type="matrix" values="0 0 0 0 0 0 0 0 0 0 0 0 0 0 0 0 0 0 0.74 0"/>
<feBlend mode="normal" in2="shape" result="effect2_innerShadow_3_244"/>
</filter>
<filter id="filter19_di_3_244" x="205.789" y="270.942" width="24.671" height="20.2186" filterUnits="userSpaceOnUse" color-interpolation-filters="sRGB">
<feFlood flood-opacity="0" result="BackgroundImageFix"/>
<feColorMatrix in="SourceAlpha" type="matrix" values="0 0 0 0 0 0 0 0 0 0 0 0 0 0 0 0 0 0 127 0" result="hardAlpha"/>
<feOffset dy="-0.368347"/>
<feGaussianBlur stdDeviation="0.184173"/>
<feColorMatrix type="matrix" values="0 0 0 0 0.78755 0 0 0 0 0.78755 0 0 0 0 0.78755 0 0 0 0.19 0"/>
<feBlend mode="normal" in2="BackgroundImageFix" result="effect1_dropShadow_3_244"/>
<feBlend mode="normal" in="SourceGraphic" in2="effect1_dropShadow_3_244" result="shape"/>
<feColorMatrix in="SourceAlpha" type="matrix" values="0 0 0 0 0 0 0 0 0 0 0 0 0 0 0 0 0 0 127 0" result="hardAlpha"/>
<feOffset dy="1.84173"/>
<feGaussianBlur stdDeviation="0.920867"/>
<feComposite in2="hardAlpha" operator="arithmetic" k2="-1" k3="1"/>
<feColorMatrix type="matrix" values="0 0 0 0 0 0 0 0 0 0 0 0 0 0 0 0 0 0 0.74 0"/>
<feBlend mode="normal" in2="shape" result="effect2_innerShadow_3_244"/>
</filter>
<filter id="filter20_di_3_244" x="99.2163" y="104.438" width="166.632" height="150.355" filterUnits="userSpaceOnUse" color-interpolation-filters="sRGB">
<feFlood flood-opacity="0" result="BackgroundImageFix"/>
<feColorMatrix in="SourceAlpha" type="matrix" values="0 0 0 0 0 0 0 0 0 0 0 0 0 0 0 0 0 0 127 0" result="hardAlpha"/>
<feOffset dy="0.768015"/>
<feGaussianBlur stdDeviation="0.384007"/>
<feColorMatrix type="matrix" values="0 0 0 0 0.925374 0 0 0 0 0.925374 0 0 0 0 0.925374 0 0 0 0.37 0"/>
<feBlend mode="normal" in2="BackgroundImageFix" result="effect1_dropShadow_3_244"/>
<feBlend mode="normal" in="SourceGraphic" in2="effect1_dropShadow_3_244" result="shape"/>
<feColorMatrix in="SourceAlpha" type="matrix" values="0 0 0 0 0 0 0 0 0 0 0 0 0 0 0 0 0 0 127 0" result="hardAlpha"/>
<feOffset dx="-5.12036" dy="3.70637"/>
<feGaussianBlur stdDeviation="2.56018"/>
<feComposite in2="hardAlpha" operator="arithmetic" k2="-1" k3="1"/>
<feColorMatrix type="matrix" values="0 0 0 0 0 0 0 0 0 0 0 0 0 0 0 0 0 0 0.63 0"/>
<feBlend mode="normal" in2="shape" result="effect2_innerShadow_3_244"/>
</filter>
<filter id="filter21_di_3_244" x="53.338" y="94.4174" width="56.7102" height="74.1711" filterUnits="userSpaceOnUse" color-interpolation-filters="sRGB">
<feFlood flood-opacity="0" result="BackgroundImageFix"/>
<feColorMatrix in="SourceAlpha" type="matrix" values="0 0 0 0 0 0 0 0 0 0 0 0 0 0 0 0 0 0 127 0" result="hardAlpha"/>
<feOffset dy="0.967704"/>
<feGaussianBlur stdDeviation="0.483852"/>
<feColorMatrix type="matrix" values="0 0 0 0 0.925374 0 0 0 0 0.925374 0 0 0 0 0.925374 0 0 0 0.37 0"/>
<feBlend mode="normal" in2="BackgroundImageFix" result="effect1_dropShadow_3_244"/>
<feBlend mode="normal" in="SourceGraphic" in2="effect1_dropShadow_3_244" result="shape"/>
<feColorMatrix in="SourceAlpha" type="matrix" values="0 0 0 0 0 0 0 0 0 0 0 0 0 0 0 0 0 0 127 0" result="hardAlpha"/>
<feOffset dx="-3.74306" dy="4.67883"/>
<feGaussianBlur stdDeviation="1.87153"/>
<feComposite in2="hardAlpha" operator="arithmetic" k2="-1" k3="1"/>
<feColorMatrix type="matrix" values="0 0 0 0 0 0 0 0 0 0 0 0 0 0 0 0 0 0 0.8 0"/>
<feBlend mode="normal" in2="shape" result="effect2_innerShadow_3_244"/>
</filter>
<filter id="filter22_f_3_244" x="84.2039" y="237.048" width="333.384" height="228.316" filterUnits="userSpaceOnUse" color-interpolation-filters="sRGB">
<feFlood flood-opacity="0" result="BackgroundImageFix"/>
<feBlend mode="normal" in="SourceGraphic" in2="BackgroundImageFix" result="shape"/>
<feGaussianBlur stdDeviation="1.54375" result="effect1_foregroundBlur_3_244"/>
</filter>
<linearGradient id="paint0_linear_3_244" x1="99.7219" y1="109.58" x2="104.69" y2="35.7066" gradientUnits="userSpaceOnUse">
<stop stop-color="#3F3F3F"/>
<stop offset="1" stop-color="#5C5C5C"/>
</linearGradient>
<linearGradient id="paint1_linear_3_244" x1="93.2421" y1="96.1785" x2="65.257" y2="-32.2098" gradientUnits="userSpaceOnUse">
<stop stop-color="#3F3F3F"/>
<stop offset="1" stop-color="#777676"/>
</linearGradient>
<linearGradient id="paint2_linear_3_244" x1="74.7055" y1="82.0908" x2="78.4271" y2="26.7492" gradientUnits="userSpaceOnUse">
<stop stop-color="#3F3F3F"/>
<stop offset="1" stop-color="#5C5C5C"/>
</linearGradient>
<linearGradient id="paint3_linear_3_244" x1="69.849" y1="72.0533" x2="48.8825" y2="-24.1298" gradientUnits="userSpaceOnUse">
<stop stop-color="#3F3F3F"/>
<stop offset="1" stop-color="#777676"/>
</linearGradient>
<linearGradient id="paint4_linear_3_244" x1="346.114" y1="479.837" x2="639.941" y2="51.4646" gradientUnits="userSpaceOnUse">
<stop stop-color="#282828"/>
<stop offset="0.664655" stop-color="#4A4949"/>
<stop offset="1" stop-color="#737373"/>
</linearGradient>
<linearGradient id="paint5_linear_3_244" x1="321.806" y1="449.479" x2="627.421" y2="41.0892" gradientUnits="userSpaceOnUse">
<stop stop-color="#555555"/>
<stop offset="0.628054" stop-color="#797979"/>
<stop offset="1" stop-color="#B8B8B8"/>
</linearGradient>
<linearGradient id="paint6_linear_3_244" x1="727.073" y1="108.876" x2="517.959" y2="284.972" gradientUnits="userSpaceOnUse">
<stop stop-color="#E8EAE9"/>
<stop offset="0.498386" stop-color="#707072"/>
<stop offset="1" stop-color="#2F3032"/>
</linearGradient>
<linearGradient id="paint7_linear_3_244" x1="151.676" y1="729.218" x2="176.014" y2="210.481" gradientUnits="userSpaceOnUse">
<stop stop-color="#E8EAE9"/>
<stop offset="0.498386" stop-color="#707072"/>
<stop offset="1" stop-color="#2F3032"/>
</linearGradient>
<linearGradient id="paint8_linear_3_244" x1="617.529" y1="471.144" x2="635.43" y2="413.076" gradientUnits="userSpaceOnUse">
<stop stop-color="#ECEAEA"/>
<stop offset="1" stop-color="white" stop-opacity="0"/>
</linearGradient>
<linearGradient id="paint9_linear_3_244" x1="8.24933" y1="527.969" x2="27.6502" y2="123.643" gradientUnits="userSpaceOnUse">
<stop stop-color="#E8EAE9"/>
<stop offset="0.498386" stop-color="#707072"/>
<stop offset="1" stop-color="#2F3032"/>
</linearGradient>
<linearGradient id="paint10_linear_3_244" x1="108.833" y1="264.965" x2="28.8106" y2="204.464" gradientUnits="userSpaceOnUse">
<stop stop-color="#E8EAE9"/>
<stop offset="0.498386" stop-color="#707072"/>
<stop offset="1" stop-color="#2F3032"/>
</linearGradient>
<linearGradient id="paint11_linear_3_244" x1="316.864" y1="293.487" x2="238.57" y2="469.326" gradientUnits="userSpaceOnUse">
<stop stop-color="#343434" stop-opacity="0.66"/>
<stop offset="1" stop-color="#1A1A1A"/>
</linearGradient>
</defs>
</svg>
