<svg width="1253" height="1035" viewBox="0 0 1253 1035" fill="none" xmlns="http://www.w3.org/2000/svg">
<g filter="url(#filter0_f_3_485)">
<path d="M907.1 764.713C951.761 753.396 1033.61 720.661 1063.66 695.057C1098.17 668.394 1030.64 633.779 1022.67 628.662C1014.7 623.545 621.651 406.007 552.919 371.985C484.187 337.962 259.199 393.055 204.085 420.483C159.161 442.839 189.356 461.447 194.985 466.458C200.615 471.47 527.102 673.243 644.912 735.645C734.13 782.902 819.437 786.926 907.1 764.713Z" fill="black" fill-opacity="0.2"/>
</g>
<path fill-rule="evenodd" clip-rule="evenodd" d="M598.609 541.008L644.017 522.385L644.024 522.404C644.304 522.284 644.585 522.167 644.869 522.055C671.899 511.359 708.479 540.002 726.574 586.032C744.669 632.061 737.426 678.047 710.397 688.743C710.073 688.871 709.747 688.994 709.421 689.111L665.527 707.141L644.136 654.036C638.211 645.428 632.941 635.577 628.692 624.766C624.771 614.793 622.04 604.821 620.442 595.21L598.609 541.008Z" fill="black"/>
<ellipse cx="52.6562" cy="89.4451" rx="52.6562" ry="89.4451" transform="matrix(-0.929451 0.367801 0.366019 0.93106 648.876 521.269)" fill="black"/>
<g filter="url(#filter1_i_3_485)">
<ellipse cx="39.494" cy="67.0869" rx="39.494" ry="67.0869" transform="matrix(-0.929451 0.367801 0.366019 0.93106 643.304 546.906)" fill="url(#paint0_linear_3_485)"/>
</g>
<g filter="url(#filter2_di_3_485)">
<path fill-rule="evenodd" clip-rule="evenodd" d="M633.856 575.567C639.747 579.191 645.499 584.663 650.572 591.562L638.171 611.022C636.42 608.774 634.483 606.955 632.498 605.675L633.856 575.567ZM630.797 643.404C633.63 644.949 636.511 645.375 639.045 644.372C639.316 644.265 639.58 644.143 639.834 644.006L655.262 673.841C654.097 674.62 652.854 675.276 651.537 675.798C644.764 678.478 637.03 677.198 629.47 672.846L630.797 643.404ZM628.257 672.121L629.585 642.672C627.397 641.225 625.273 639.126 623.398 636.521L611.24 655.6C616.378 662.731 622.243 668.389 628.257 672.121ZM631.285 604.962L632.643 574.848C625.13 570.565 617.453 569.32 610.725 571.982C608.846 572.726 607.121 573.743 605.553 575.002L621.199 605.258C621.807 604.769 622.478 604.374 623.207 604.085C625.691 603.102 628.507 603.492 631.285 604.962ZM600.626 635.962C603.324 642.826 606.683 649.069 610.463 654.503L622.632 635.407C621.357 633.468 620.221 631.286 619.288 628.913C619.042 628.286 618.815 627.66 618.607 627.034L598.956 631.377C599.468 632.903 600.024 634.432 600.626 635.962ZM638.965 612.091L651.356 592.647C655.316 598.227 658.833 604.688 661.636 611.819C662.173 613.186 662.675 614.553 663.141 615.917L643.256 620.311C643.162 620.056 643.065 619.8 642.964 619.544C641.874 616.771 640.506 614.26 638.965 612.091ZM598.566 630.187C595.347 620.151 594.048 610.299 594.52 601.585L616.902 615.93C616.781 618.979 617.211 622.371 618.233 625.841L598.566 630.187ZM643.669 621.496C644.961 625.412 645.5 629.264 645.344 632.679L667.693 647.003C668.302 637.952 666.974 627.622 663.538 617.105L643.669 621.496ZM667.582 648.411L645.237 634.09C644.804 638.161 643.316 641.479 640.886 643.33L656.285 673.109C662.72 668.205 666.59 659.307 667.582 648.411ZM594.613 600.165L617 614.513C617.347 611.04 618.455 608.105 620.256 606.144L604.581 575.832C598.834 581.045 595.422 589.726 594.613 600.165Z" fill="#4C4C4C"/>
</g>
<path fill-rule="evenodd" clip-rule="evenodd" d="M598.664 540.068L644.071 521.445L644.079 521.465C644.366 521.342 644.655 521.222 644.947 521.107C671.976 510.41 708.556 539.054 726.651 585.084C744.746 631.113 737.503 677.099 710.473 687.795C710.139 687.928 709.804 688.054 709.467 688.174L665.581 706.201L644.151 652.998C638.251 644.411 633.004 634.591 628.769 623.819C624.863 613.883 622.138 603.95 620.538 594.373L598.664 540.068Z" fill="black"/>
<path d="M583.243 642.172C601.324 688.165 637.893 716.779 664.923 706.083C691.952 695.387 699.206 649.431 681.125 603.438C663.044 557.444 625.447 526.351 598.418 537.047C571.388 547.743 565.162 596.178 583.243 642.172Z" fill="black"/>
<g filter="url(#filter3_i_3_485)">
<ellipse cx="37.0157" cy="64.6943" rx="37.0157" ry="64.6943" transform="matrix(-0.925829 0.378121 0.352729 0.935706 643.059 549.381)" fill="url(#paint1_linear_3_485)"/>
</g>
<g filter="url(#filter4_di_3_485)">
<path fill-rule="evenodd" clip-rule="evenodd" d="M606.273 634.337C615.559 658.864 634.265 674.194 648.227 668.78L639.477 646.059C632.758 648.366 623.938 641.159 619.363 629.612L606.273 634.337ZM605.026 630.811C597.445 607.77 601.164 585.528 613.823 579.443L622.57 602.156C616.782 605.221 614.975 615.35 618.142 626.076L605.026 630.811ZM643.341 616.979C639.238 607.457 632.246 601.165 626.21 601.239L617.35 578.231C630.764 575.319 647.586 589.735 656.48 612.236L643.341 616.979ZM644.666 620.477L657.778 615.744C665.403 637.823 662.634 659.408 651.544 667.025L642.68 644.008C646.953 639.654 647.861 630.213 644.666 620.477Z" fill="#474747"/>
</g>
<path fill-rule="evenodd" clip-rule="evenodd" d="M271.984 357.846L311.634 349.478L311.637 349.495C311.894 349.436 312.152 349.381 312.411 349.329C335.956 344.664 361.415 373.379 369.276 413.465C377.137 453.55 364.423 489.828 340.879 494.493C340.592 494.55 340.305 494.602 340.017 494.649L301.663 502.765L292.143 456.281C288.641 448.445 285.849 439.711 284.014 430.358C282.323 421.733 281.584 413.285 281.701 405.29L271.984 357.846Z" fill="black"/>
<ellipse cx="43.4874" cy="73.8594" rx="43.4874" ry="73.8594" transform="matrix(-0.980301 0.19423 0.19257 0.981936 315.704 349.283)" fill="black"/>
<g filter="url(#filter5_i_3_485)">
<ellipse cx="32.617" cy="55.3971" rx="32.617" ry="55.3971" transform="matrix(-0.980301 0.19423 0.19257 0.981936 307.393 369.275)" fill="url(#paint2_linear_3_485)"/>
</g>
<g filter="url(#filter6_di_3_485)">
<path fill-rule="evenodd" clip-rule="evenodd" d="M295.434 391.146C299.688 394.968 303.553 400.276 306.652 406.643L293.675 420.621C292.586 418.528 291.281 416.757 289.856 415.418L295.434 391.146ZM282.869 445.816C284.94 447.492 287.216 448.266 289.423 447.829C289.665 447.781 289.904 447.719 290.137 447.643L298.238 474.18C297.176 474.64 296.071 474.987 294.924 475.214C289.018 476.384 282.92 474.188 277.422 469.519L282.869 445.816ZM276.545 468.748L281.993 445.042C280.433 443.544 279.021 441.527 277.886 439.137L265.192 452.809C268.303 459.359 272.22 464.822 276.545 468.748ZM288.976 414.658L294.556 390.383C289.094 385.794 283.048 383.644 277.193 384.804C275.556 385.129 274.003 385.698 272.542 386.489L280.753 413.385C281.315 413.083 281.912 412.865 282.541 412.74C284.706 412.311 286.937 413.048 288.976 414.658ZM259.487 435.274C260.659 441.252 262.46 446.825 264.724 451.802L277.428 438.119C276.678 436.349 276.076 434.401 275.669 432.328C275.563 431.782 275.471 431.24 275.396 430.702L258.812 431.303C259.001 432.618 259.225 433.943 259.487 435.274ZM294.161 421.608L307.128 407.642C309.516 412.764 311.412 418.535 312.63 424.745C312.864 425.936 313.068 427.121 313.244 428.3L296.418 428.91C296.379 428.688 296.338 428.465 296.294 428.241C295.822 425.833 295.087 423.594 294.161 421.608ZM258.671 430.279C257.547 421.645 257.955 413.448 259.633 406.438L275.664 421.406C275.109 423.87 274.953 426.697 275.269 429.677L258.671 430.279ZM296.578 429.934C297.044 433.299 296.911 436.502 296.281 439.248L312.324 454.227C314.163 446.966 314.619 438.378 313.39 429.324L296.578 429.934ZM312.024 455.355L295.985 440.379C295.032 443.623 293.334 446.099 291.09 447.247L299.178 473.738C305.134 470.713 309.601 464.06 312.024 455.355ZM259.92 405.299L275.955 420.27C276.755 417.5 278.096 415.282 279.854 413.961L271.629 387.019C266.188 390.398 262.127 396.941 259.92 405.299Z" fill="#4C4C4C"/>
</g>
<path fill-rule="evenodd" clip-rule="evenodd" d="M271.828 358.863L311.478 350.495L311.482 350.516C311.725 350.461 311.968 350.409 312.213 350.36C335.757 345.695 361.216 374.409 369.077 414.495C376.939 454.581 364.225 490.859 340.681 495.524C340.365 495.587 340.049 495.643 339.733 495.694L301.507 503.783L292.028 457.496C288.487 449.613 285.665 440.816 283.816 431.389C282.11 422.691 281.373 414.172 281.505 406.116L271.828 358.863Z" fill="black"/>
<ellipse cx="43.9706" cy="74.6801" rx="43.9706" ry="74.6801" transform="matrix(-0.980301 0.19423 0.19257 0.981936 315.891 348.54)" fill="black"/>
<g filter="url(#filter7_i_3_485)">
<g filter="url(#filter8_i_3_485)">
<ellipse cx="30.5996" cy="53.4886" rx="30.5996" ry="53.4886" transform="matrix(-0.968058 0.248051 0.261123 0.965968 300.01 375.993)" fill="url(#paint3_linear_3_485)"/>
</g>
<g filter="url(#filter9_di_3_485)">
<path fill-rule="evenodd" clip-rule="evenodd" d="M261.399 440.057C266.225 461.152 279.832 476.204 291.954 473.91L287.375 454.285C281.594 455.112 275.207 448.061 272.766 438.143L261.399 440.057ZM260.758 436.931C257.185 417.238 262.82 399.829 273.945 396.725L278.526 416.357C273.431 418.03 270.787 425.923 272.147 435.014L260.758 436.931ZM294.001 431.334C291.715 423.03 286.661 416.923 281.663 416.123L277.026 396.249C288.437 395.84 300.65 409.938 305.377 429.419L294.001 431.334ZM294.705 434.449L306.059 432.537C309.752 451.454 304.954 468.447 294.927 472.971L290.291 453.103C294.327 450.23 296.185 442.763 294.705 434.449Z" fill="url(#paint4_linear_3_485)"/>
</g>
</g>
<g filter="url(#filter10_ii_3_485)">
<path fill-rule="evenodd" clip-rule="evenodd" d="M858.617 362.663C860.488 363.915 862.156 364.795 863.63 365.262C879.945 370.426 1014.86 452.523 1043.64 484.367C1071.65 515.356 1069.23 533.014 1068.1 541.212C1067.94 542.396 1067.8 543.382 1067.79 544.183C1067.73 548.177 1067.33 556.203 1066.83 566.414C1066.54 572.428 1066.21 579.2 1065.89 586.352L1064.79 610.653C1064.65 612.466 1064.58 614.319 1064.5 616.21C1064.17 624.243 1063.82 632.976 1058.46 642.321C1051.86 653.84 1020.61 695.76 876.379 734.019C827.483 746.989 772.236 727.644 737.184 711.235C721.53 704.586 709.991 698.338 704.987 695.531C704.271 695.129 703.827 694.425 703.751 693.616C703.527 693.488 703.32 693.37 703.13 693.262C702.772 680.92 700.606 663.189 697.033 645.451C693.072 627.05 687.61 608.81 681.264 596.745C666.19 568.084 632.98 532.077 605.218 540.28C573.712 549.59 574.084 594.303 574.2 604.981C574.234 608.121 574.503 610.226 574.769 612.305L574.769 612.305C575.15 615.29 575.524 618.221 575.188 624.084C575.175 624.314 575.131 624.532 575.062 624.735C575.023 625.263 574.978 625.822 574.924 626.417L574.116 625.952C573.385 626.434 572.399 626.524 571.534 626.031L333.144 490.217C332.472 489.835 332.013 489.164 331.928 488.396C331.318 482.861 331.627 476.374 331.974 469.083L331.974 469.081C332.874 450.196 334.029 425.924 320.144 398.871C307.452 374.143 288.098 357.282 269.616 362.178C251.135 367.074 245.294 386.474 243.808 397.358C242.348 408.046 242.484 417.922 242.563 423.65L242.563 423.65C242.595 425.955 242.617 427.588 242.523 428.332C242.193 430.923 216.972 407.168 215.673 398.491C211.72 372.082 211.755 347.521 215.647 321.073C216.308 316.584 218.54 305.012 219.955 301.126C220.081 300.78 220.149 300.423 220.14 300.055C219.915 290.904 222.14 277.205 224.94 271.544C225.184 271.049 225.425 270.527 225.677 269.979L225.681 269.97C228.645 263.536 233.272 253.489 266.029 240.58C312.543 222.249 438.741 182.465 443.592 181.621C455.055 179.627 469.544 181.359 481.274 182.761C488.156 183.584 494.089 184.293 497.902 184.07C552.984 180.837 616.196 191.27 698.148 237.34C709.159 242.608 720.012 248.542 730.479 255.23C756.589 271.912 778.44 289.358 796.553 305.327C817.791 323.116 834.067 338.984 845.747 350.371C850.932 355.427 855.212 359.599 858.617 362.663Z" fill="url(#paint5_linear_3_485)"/>
</g>
<g filter="url(#filter11_ddi_3_485)">
<path d="M634.207 447.31C604.048 433.206 588.775 390.447 543.892 339.304C543.309 338.639 543.571 337.581 544.406 337.289L738.509 269.332C738.699 269.265 738.888 269.244 739.083 269.29C741.548 269.879 760.409 275.789 813.756 327.129C839.795 352.188 844.943 358.642 858.526 368.712C860.674 370.305 860.141 373.575 851.699 379.915C824.788 400.126 678.456 468.003 634.207 447.31Z" fill="url(#paint6_linear_3_485)"/>
</g>
<g filter="url(#filter12_di_3_485)">
<path d="M426.4 277.053C386.888 262.634 381.179 263.552 350.4 262.164C331.329 261.304 299.63 258.811 295.945 267.233C292.261 275.654 327.646 304.221 342.417 313.285C349.636 317.715 599.288 457.208 591.848 441.716C582.682 422.631 539.025 367.324 524.276 344.878C499.685 307.456 465.913 291.472 426.4 277.053Z" fill="url(#paint7_linear_3_485)"/>
</g>
<g filter="url(#filter13_di_3_485)">
<path d="M336.705 247.727L507.946 186.835C507.946 186.835 504.117 187.994 483.497 186.76C476.302 186.329 298.55 250.185 297.224 251.248L336.705 247.727Z" fill="url(#paint8_linear_3_485)"/>
</g>
<g filter="url(#filter14_f_3_485)">
<path d="M707.317 543.12C644.092 510.195 609.504 470.884 572.152 434.692C686.459 474.26 925.563 560.351 921.543 565.071C916.518 570.971 898.775 577.438 840.728 578.73C783.579 580.002 714.556 546.889 707.317 543.12Z" fill="url(#paint9_linear_3_485)" fill-opacity="0.21"/>
</g>
<g filter="url(#filter15_di_3_485)">
<path d="M481.65 442.147C481.672 441.669 481.419 441.221 480.999 440.993L457.381 428.163C456.574 427.724 455.588 428.282 455.547 429.2L455.28 435.121C455.258 435.599 455.512 436.048 455.932 436.276L479.553 449.059C480.36 449.495 481.344 448.938 481.385 448.02L481.65 442.147Z" fill="#323232"/>
</g>
<g filter="url(#filter16_di_3_485)">
<path d="M360.525 382.059C360.546 381.581 360.293 381.133 359.874 380.905L336.256 368.075C335.449 367.636 334.463 368.194 334.421 369.112L334.154 375.033C334.133 375.511 334.386 375.96 334.807 376.187L358.427 388.971C359.234 389.407 360.218 388.85 360.26 387.932L360.525 382.059Z" fill="#323232"/>
</g>
<path d="M761.256 424.751L618.901 310.904C601.838 314.708 562.702 330.149 555.268 332.565C545.637 335.695 543.973 337.606 543.973 337.606C543.845 340.465 545.248 341.781 549.644 346.456C555.946 353.158 558.604 356.231 573.993 377.813C596.154 408.892 612.788 437.629 629.642 445.105C643.05 451.052 664.128 456.675 694.872 448.046C722.353 440.333 739.476 430.989 761.256 424.751Z" fill="#C4C4C4" fill-opacity="0.2"/>
<g opacity="0.17" filter="url(#filter17_f_3_485)">
<path d="M1018.45 521.462C976.911 551.38 885.65 592.71 845.503 597.831" stroke="url(#paint10_linear_3_485)" stroke-width="41.0856" stroke-linecap="round" stroke-linejoin="round"/>
</g>
<g filter="url(#filter18_dii_3_485)">
<path d="M1048.51 534.421C1056.77 524.263 1054.93 515.769 1054.39 502.458C1054.38 502.264 1054.35 502.049 1054.29 501.863C1051.14 490.778 1065 513.164 1065.87 528.227C1066.15 533.176 1065.72 535.657 1065.05 540.183C1064.75 542.253 1059.9 554.76 1060.41 557.531C1060.92 560.301 1058.67 579.135 1058.64 581.995C1058.61 584.855 1045.72 605.567 1013.46 624.649C986.667 640.501 948.79 649.991 944.934 650.369C941.078 650.747 937.902 637.726 935.153 636.891C927.958 634.704 906.101 641.632 897.984 643.288C888.512 645.22 866.414 649.663 842.668 645.518C813.297 640.391 808.928 636.829 782.437 620.818C763.981 609.662 751.752 588.568 748.14 578.177C747.565 576.522 749.102 575.141 750.745 575.751C767.88 582.109 808.043 599.292 854.315 606.154C919.209 615.778 972.1 587.121 979.678 583.001C1011.53 565.68 1028.13 559.493 1048.51 534.421Z" fill="#211F1F"/>
</g>
<mask id="mask0_3_485" style="mask-type:alpha" maskUnits="userSpaceOnUse" x="748" y="495" width="322" height="156">
<path d="M1048.56 534.296C1057.62 523.129 1055.57 508.809 1052.7 498.688C1052.01 496.254 1054.56 494.894 1055.97 496.997C1065.19 510.793 1068.42 522.889 1069.05 528.824C1069.34 533.773 1069.08 536.896 1068.42 541.423C1068.11 543.493 1059.95 554.628 1060.47 557.398C1060.98 560.168 1058.74 579.003 1058.71 581.863C1058.68 584.724 1045.81 605.445 1013.56 624.548C986.777 640.418 948.906 649.933 945.051 650.313C941.195 650.694 938.011 637.675 935.261 636.842C928.065 634.66 906.213 641.602 898.097 643.263C888.626 645.202 866.531 649.659 842.783 645.53C813.409 640.423 809.037 636.864 782.537 620.87C764.074 609.726 751.832 588.64 748.214 578.252C747.638 576.597 749.174 575.215 750.818 575.823C767.956 582.171 808.13 599.327 854.406 606.158C919.305 615.739 972.178 587.048 979.753 582.922C1011.6 565.58 1028.19 559.382 1048.56 534.296Z" fill="#999999"/>
</mask>
<g mask="url(#mask0_3_485)">
<g filter="url(#filter19_d_3_485)">
<path d="M884.623 595.709C885.035 598.307 885.171 601.773 884.116 605.325C883.067 608.857 880.829 612.513 876.418 615.515C871.992 618.528 865.329 620.914 855.389 621.794C849.451 622.32 841.321 621.922 833.044 619.961C824.764 618 816.402 614.491 809.941 608.847C806.419 605.77 802.257 599.889 798.936 594.688C797.287 592.105 795.861 589.718 794.849 587.976C794.551 587.464 794.291 587.008 794.069 586.619L883.743 592.016C883.797 592.179 883.859 592.375 883.927 592.603C884.146 593.344 884.418 594.413 884.623 595.709Z" stroke="white" stroke-opacity="0.5" stroke-width="1.8525"/>
</g>
<g filter="url(#filter20_d_3_485)">
<path d="M1054.49 505.422C1054.7 505.787 1054.96 506.25 1055.25 506.804C1056.01 508.31 1056.96 510.473 1057.66 513.093C1059.07 518.332 1059.52 525.365 1055.73 532.652C1054.61 534.792 1053.05 536.298 1051.36 536.894C1049.71 537.474 1047.84 537.234 1045.93 535.652C1044.98 534.865 1043.56 534.46 1042.1 534.248C1040.62 534.031 1038.96 533.998 1037.43 534.045C1035.93 534.091 1034.53 534.216 1033.49 534.331L1054.49 505.422Z" stroke="white" stroke-opacity="0.5" stroke-width="1.54375"/>
</g>
</g>
<g filter="url(#filter21_f_3_485)">
<path d="M581.221 532.342L333.992 401.591C347.849 430.962 343.617 463.034 342.416 476.455L557.814 599.206C559.538 560.956 572 535.669 581.221 532.342Z" fill="url(#paint11_linear_3_485)"/>
</g>
<defs>
<filter id="filter0_f_3_485" x="162.484" y="343.867" width="928.283" height="451.228" filterUnits="userSpaceOnUse" color-interpolation-filters="sRGB">
<feFlood flood-opacity="0" result="BackgroundImageFix"/>
<feBlend mode="normal" in="SourceGraphic" in2="BackgroundImageFix" result="shape"/>
<feGaussianBlur stdDeviation="8.67815" result="effect1_foregroundBlur_3_485"/>
</filter>
<filter id="filter1_i_3_485" x="586.983" y="559.751" width="88.3361" height="128.286" filterUnits="userSpaceOnUse" color-interpolation-filters="sRGB">
<feFlood flood-opacity="0" result="BackgroundImageFix"/>
<feBlend mode="normal" in="SourceGraphic" in2="BackgroundImageFix" result="shape"/>
<feColorMatrix in="SourceAlpha" type="matrix" values="0 0 0 0 0 0 0 0 0 0 0 0 0 0 0 0 0 0 127 0" result="hardAlpha"/>
<feMorphology radius="0.622509" operator="erode" in="SourceAlpha" result="effect1_innerShadow_3_485"/>
<feOffset/>
<feGaussianBlur stdDeviation="0.311254"/>
<feComposite in2="hardAlpha" operator="arithmetic" k2="-1" k3="1"/>
<feColorMatrix type="matrix" values="0 0 0 0 0 0 0 0 0 0 0 0 0 0 0 0 0 0 0.25 0"/>
<feBlend mode="normal" in2="shape" result="effect1_innerShadow_3_485"/>
</filter>
<filter id="filter2_di_3_485" x="592.558" y="570.461" width="75.6508" height="107.979" filterUnits="userSpaceOnUse" color-interpolation-filters="sRGB">
<feFlood flood-opacity="0" result="BackgroundImageFix"/>
<feColorMatrix in="SourceAlpha" type="matrix" values="0 0 0 0 0 0 0 0 0 0 0 0 0 0 0 0 0 0 127 0" result="hardAlpha"/>
<feOffset dy="0.249004"/>
<feGaussianBlur stdDeviation="0.186753"/>
<feColorMatrix type="matrix" values="0 0 0 0 1 0 0 0 0 1 0 0 0 0 1 0 0 0 0.41 0"/>
<feBlend mode="normal" in2="BackgroundImageFix" result="effect1_dropShadow_3_485"/>
<feBlend mode="normal" in="SourceGraphic" in2="effect1_dropShadow_3_485" result="shape"/>
<feColorMatrix in="SourceAlpha" type="matrix" values="0 0 0 0 0 0 0 0 0 0 0 0 0 0 0 0 0 0 127 0" result="hardAlpha"/>
<feOffset dx="-1.86753" dy="1.24502"/>
<feGaussianBlur stdDeviation="0.933763"/>
<feComposite in2="hardAlpha" operator="arithmetic" k2="-1" k3="1"/>
<feColorMatrix type="matrix" values="0 0 0 0 0 0 0 0 0 0 0 0 0 0 0 0 0 0 0.25 0"/>
<feBlend mode="normal" in2="shape" result="effect2_innerShadow_3_485"/>
</filter>
<filter id="filter3_i_3_485" x="590.432" y="561.766" width="82.3539" height="124.291" filterUnits="userSpaceOnUse" color-interpolation-filters="sRGB">
<feFlood flood-opacity="0" result="BackgroundImageFix"/>
<feBlend mode="normal" in="SourceGraphic" in2="BackgroundImageFix" result="shape"/>
<feColorMatrix in="SourceAlpha" type="matrix" values="0 0 0 0 0 0 0 0 0 0 0 0 0 0 0 0 0 0 127 0" result="hardAlpha"/>
<feMorphology radius="0.45706" operator="erode" in="SourceAlpha" result="effect1_innerShadow_3_485"/>
<feOffset/>
<feGaussianBlur stdDeviation="0.22853"/>
<feComposite in2="hardAlpha" operator="arithmetic" k2="-1" k3="1"/>
<feColorMatrix type="matrix" values="0 0 0 0 0 0 0 0 0 0 0 0 0 0 0 0 0 0 0.25 0"/>
<feBlend mode="normal" in2="shape" result="effect1_innerShadow_3_485"/>
</filter>
<filter id="filter4_di_3_485" x="599.25" y="577.734" width="63.205" height="93.3783" filterUnits="userSpaceOnUse" color-interpolation-filters="sRGB">
<feFlood flood-opacity="0" result="BackgroundImageFix"/>
<feColorMatrix in="SourceAlpha" type="matrix" values="0 0 0 0 0 0 0 0 0 0 0 0 0 0 0 0 0 0 127 0" result="hardAlpha"/>
<feOffset dy="0.249003"/>
<feGaussianBlur stdDeviation="0.186753"/>
<feColorMatrix type="matrix" values="0 0 0 0 1 0 0 0 0 1 0 0 0 0 1 0 0 0 0.41 0"/>
<feBlend mode="normal" in2="BackgroundImageFix" result="effect1_dropShadow_3_485"/>
<feBlend mode="normal" in="SourceGraphic" in2="effect1_dropShadow_3_485" result="shape"/>
<feColorMatrix in="SourceAlpha" type="matrix" values="0 0 0 0 0 0 0 0 0 0 0 0 0 0 0 0 0 0 127 0" result="hardAlpha"/>
<feOffset dx="-1.86753" dy="1.24502"/>
<feGaussianBlur stdDeviation="0.933763"/>
<feComposite in2="hardAlpha" operator="arithmetic" k2="-1" k3="1"/>
<feColorMatrix type="matrix" values="0 0 0 0 0 0 0 0 0 0 0 0 0 0 0 0 0 0 0.25 0"/>
<feBlend mode="normal" in2="shape" result="effect2_innerShadow_3_485"/>
</filter>
<filter id="filter5_i_3_485" x="252.37" y="375.237" width="67.4327" height="109.539" filterUnits="userSpaceOnUse" color-interpolation-filters="sRGB">
<feFlood flood-opacity="0" result="BackgroundImageFix"/>
<feBlend mode="normal" in="SourceGraphic" in2="BackgroundImageFix" result="shape"/>
<feColorMatrix in="SourceAlpha" type="matrix" values="0 0 0 0 0 0 0 0 0 0 0 0 0 0 0 0 0 0 127 0" result="hardAlpha"/>
<feMorphology radius="0.514076" operator="erode" in="SourceAlpha" result="effect1_innerShadow_3_485"/>
<feOffset/>
<feGaussianBlur stdDeviation="0.257038"/>
<feComposite in2="hardAlpha" operator="arithmetic" k2="-1" k3="1"/>
<feColorMatrix type="matrix" values="0 0 0 0 0 0 0 0 0 0 0 0 0 0 0 0 0 0 0.25 0"/>
<feBlend mode="normal" in2="shape" result="effect1_innerShadow_3_485"/>
</filter>
<filter id="filter6_di_3_485" x="256.497" y="384.392" width="57.8891" height="92.1606" filterUnits="userSpaceOnUse" color-interpolation-filters="sRGB">
<feFlood flood-opacity="0" result="BackgroundImageFix"/>
<feColorMatrix in="SourceAlpha" type="matrix" values="0 0 0 0 0 0 0 0 0 0 0 0 0 0 0 0 0 0 127 0" result="hardAlpha"/>
<feOffset dy="0.20563"/>
<feGaussianBlur stdDeviation="0.154223"/>
<feColorMatrix type="matrix" values="0 0 0 0 1 0 0 0 0 1 0 0 0 0 1 0 0 0 0.41 0"/>
<feBlend mode="normal" in2="BackgroundImageFix" result="effect1_dropShadow_3_485"/>
<feBlend mode="normal" in="SourceGraphic" in2="effect1_dropShadow_3_485" result="shape"/>
<feColorMatrix in="SourceAlpha" type="matrix" values="0 0 0 0 0 0 0 0 0 0 0 0 0 0 0 0 0 0 127 0" result="hardAlpha"/>
<feOffset dx="-1.54223" dy="1.02815"/>
<feGaussianBlur stdDeviation="0.771114"/>
<feComposite in2="hardAlpha" operator="arithmetic" k2="-1" k3="1"/>
<feColorMatrix type="matrix" values="0 0 0 0 0 0 0 0 0 0 0 0 0 0 0 0 0 0 0.25 0"/>
<feBlend mode="normal" in2="shape" result="effect2_innerShadow_3_485"/>
</filter>
<filter id="filter7_i_3_485" x="251.597" y="383.022" width="65.515" height="104.459" filterUnits="userSpaceOnUse" color-interpolation-filters="sRGB">
<feFlood flood-opacity="0" result="BackgroundImageFix"/>
<feBlend mode="normal" in="SourceGraphic" in2="BackgroundImageFix" result="shape"/>
<feColorMatrix in="SourceAlpha" type="matrix" values="0 0 0 0 0 0 0 0 0 0 0 0 0 0 0 0 0 0 127 0" result="hardAlpha"/>
<feMorphology radius="0.45706" operator="erode" in="SourceAlpha" result="effect1_innerShadow_3_485"/>
<feOffset/>
<feGaussianBlur stdDeviation="0.22853"/>
<feComposite in2="hardAlpha" operator="arithmetic" k2="-1" k3="1"/>
<feColorMatrix type="matrix" values="0 0 0 0 0 0 0 0 0 0 0 0 0 0 0 0 0 0 0.25 0"/>
<feBlend mode="normal" in2="shape" result="effect1_innerShadow_3_485"/>
</filter>
<filter id="filter8_i_3_485" x="251.597" y="383.022" width="65.515" height="104.459" filterUnits="userSpaceOnUse" color-interpolation-filters="sRGB">
<feFlood flood-opacity="0" result="BackgroundImageFix"/>
<feBlend mode="normal" in="SourceGraphic" in2="BackgroundImageFix" result="shape"/>
<feColorMatrix in="SourceAlpha" type="matrix" values="0 0 0 0 0 0 0 0 0 0 0 0 0 0 0 0 0 0 127 0" result="hardAlpha"/>
<feMorphology radius="0.462662" operator="erode" in="SourceAlpha" result="effect1_innerShadow_3_485"/>
<feOffset/>
<feGaussianBlur stdDeviation="0.231331"/>
<feComposite in2="hardAlpha" operator="arithmetic" k2="-1" k3="1"/>
<feColorMatrix type="matrix" values="0 0 0 0 0 0 0 0 0 0 0 0 0 0 0 0 0 0 0.25 0"/>
<feBlend mode="normal" in2="shape" result="effect1_innerShadow_3_485"/>
</filter>
<filter id="filter9_di_3_485" x="257.822" y="396.115" width="49.8511" height="79.2701" filterUnits="userSpaceOnUse" color-interpolation-filters="sRGB">
<feFlood flood-opacity="0" result="BackgroundImageFix"/>
<feColorMatrix in="SourceAlpha" type="matrix" values="0 0 0 0 0 0 0 0 0 0 0 0 0 0 0 0 0 0 127 0" result="hardAlpha"/>
<feOffset dy="0.249004"/>
<feGaussianBlur stdDeviation="0.186753"/>
<feColorMatrix type="matrix" values="0 0 0 0 1 0 0 0 0 1 0 0 0 0 1 0 0 0 0.41 0"/>
<feBlend mode="normal" in2="BackgroundImageFix" result="effect1_dropShadow_3_485"/>
<feBlend mode="normal" in="SourceGraphic" in2="effect1_dropShadow_3_485" result="shape"/>
<feColorMatrix in="SourceAlpha" type="matrix" values="0 0 0 0 0 0 0 0 0 0 0 0 0 0 0 0 0 0 127 0" result="hardAlpha"/>
<feOffset dx="-1.86753" dy="1.24502"/>
<feGaussianBlur stdDeviation="0.933763"/>
<feComposite in2="hardAlpha" operator="arithmetic" k2="-1" k3="1"/>
<feColorMatrix type="matrix" values="0 0 0 0 0 0 0 0 0 0 0 0 0 0 0 0 0 0 0.25 0"/>
<feBlend mode="normal" in2="shape" result="effect2_innerShadow_3_485"/>
</filter>
<filter id="filter10_ii_3_485" x="212.718" y="175.738" width="859.715" height="562.53" filterUnits="userSpaceOnUse" color-interpolation-filters="sRGB">
<feFlood flood-opacity="0" result="BackgroundImageFix"/>
<feBlend mode="normal" in="SourceGraphic" in2="BackgroundImageFix" result="shape"/>
<feColorMatrix in="SourceAlpha" type="matrix" values="0 0 0 0 0 0 0 0 0 0 0 0 0 0 0 0 0 0 127 0" result="hardAlpha"/>
<feOffset dx="3.73505" dy="-4.98007"/>
<feGaussianBlur stdDeviation="14.9402"/>
<feComposite in2="hardAlpha" operator="arithmetic" k2="-1" k3="1"/>
<feColorMatrix type="matrix" values="0 0 0 0 0 0 0 0 0 0 0 0 0 0 0 0 0 0 0.07 0"/>
<feBlend mode="normal" in2="shape" result="effect1_innerShadow_3_485"/>
<feColorMatrix in="SourceAlpha" type="matrix" values="0 0 0 0 0 0 0 0 0 0 0 0 0 0 0 0 0 0 127 0" result="hardAlpha"/>
<feOffset dy="-0.622509"/>
<feGaussianBlur stdDeviation="1.24502"/>
<feComposite in2="hardAlpha" operator="arithmetic" k2="-1" k3="1"/>
<feColorMatrix type="matrix" values="0 0 0 0 0 0 0 0 0 0 0 0 0 0 0 0 0 0 0.25 0"/>
<feBlend mode="normal" in2="effect1_innerShadow_3_485" result="effect2_innerShadow_3_485"/>
</filter>
<filter id="filter11_ddi_3_485" x="541.088" y="267.398" width="319.752" height="185.659" filterUnits="userSpaceOnUse" color-interpolation-filters="sRGB">
<feFlood flood-opacity="0" result="BackgroundImageFix"/>
<feColorMatrix in="SourceAlpha" type="matrix" values="0 0 0 0 0 0 0 0 0 0 0 0 0 0 0 0 0 0 127 0" result="hardAlpha"/>
<feOffset dx="-1.24502" dy="0.622509"/>
<feGaussianBlur stdDeviation="0.622509"/>
<feColorMatrix type="matrix" values="0 0 0 0 1 0 0 0 0 1 0 0 0 0 1 0 0 0 0.28 0"/>
<feBlend mode="normal" in2="BackgroundImageFix" result="effect1_dropShadow_3_485"/>
<feColorMatrix in="SourceAlpha" type="matrix" values="0 0 0 0 0 0 0 0 0 0 0 0 0 0 0 0 0 0 127 0" result="hardAlpha"/>
<feOffset dy="-0.622509"/>
<feGaussianBlur stdDeviation="0.622509"/>
<feColorMatrix type="matrix" values="0 0 0 0 1 0 0 0 0 1 0 0 0 0 1 0 0 0 0.56 0"/>
<feBlend mode="normal" in2="effect1_dropShadow_3_485" result="effect2_dropShadow_3_485"/>
<feBlend mode="normal" in="SourceGraphic" in2="effect2_dropShadow_3_485" result="shape"/>
<feColorMatrix in="SourceAlpha" type="matrix" values="0 0 0 0 0 0 0 0 0 0 0 0 0 0 0 0 0 0 127 0" result="hardAlpha"/>
<feOffset dx="-0.622509" dy="1.86753"/>
<feGaussianBlur stdDeviation="0.933763"/>
<feComposite in2="hardAlpha" operator="arithmetic" k2="-1" k3="1"/>
<feColorMatrix type="matrix" values="0 0 0 0 0 0 0 0 0 0 0 0 0 0 0 0 0 0 0.75 0"/>
<feBlend mode="normal" in2="shape" result="effect3_innerShadow_3_485"/>
</filter>
<filter id="filter12_di_3_485" x="293.188" y="261.146" width="299.467" height="184.261" filterUnits="userSpaceOnUse" color-interpolation-filters="sRGB">
<feFlood flood-opacity="0" result="BackgroundImageFix"/>
<feColorMatrix in="SourceAlpha" type="matrix" values="0 0 0 0 0 0 0 0 0 0 0 0 0 0 0 0 0 0 127 0" result="hardAlpha"/>
<feOffset dy="0.643755"/>
<feGaussianBlur stdDeviation="0.321877"/>
<feColorMatrix type="matrix" values="0 0 0 0 0.925374 0 0 0 0 0.925374 0 0 0 0 0.925374 0 0 0 0.37 0"/>
<feBlend mode="normal" in2="BackgroundImageFix" result="effect1_dropShadow_3_485"/>
<feBlend mode="normal" in="SourceGraphic" in2="effect1_dropShadow_3_485" result="shape"/>
<feColorMatrix in="SourceAlpha" type="matrix" values="0 0 0 0 0 0 0 0 0 0 0 0 0 0 0 0 0 0 127 0" result="hardAlpha"/>
<feOffset dx="-2.49003" dy="3.11254"/>
<feGaussianBlur stdDeviation="1.24502"/>
<feComposite in2="hardAlpha" operator="arithmetic" k2="-1" k3="1"/>
<feColorMatrix type="matrix" values="0 0 0 0 0 0 0 0 0 0 0 0 0 0 0 0 0 0 0.8 0"/>
<feBlend mode="normal" in2="shape" result="effect2_innerShadow_3_485"/>
</filter>
<filter id="filter13_di_3_485" x="294.734" y="186.757" width="213.856" height="66.9806" filterUnits="userSpaceOnUse" color-interpolation-filters="sRGB">
<feFlood flood-opacity="0" result="BackgroundImageFix"/>
<feColorMatrix in="SourceAlpha" type="matrix" values="0 0 0 0 0 0 0 0 0 0 0 0 0 0 0 0 0 0 127 0" result="hardAlpha"/>
<feOffset dy="0.643755"/>
<feGaussianBlur stdDeviation="0.321877"/>
<feColorMatrix type="matrix" values="0 0 0 0 0.925374 0 0 0 0 0.925374 0 0 0 0 0.925374 0 0 0 0.37 0"/>
<feBlend mode="normal" in2="BackgroundImageFix" result="effect1_dropShadow_3_485"/>
<feBlend mode="normal" in="SourceGraphic" in2="effect1_dropShadow_3_485" result="shape"/>
<feColorMatrix in="SourceAlpha" type="matrix" values="0 0 0 0 0 0 0 0 0 0 0 0 0 0 0 0 0 0 127 0" result="hardAlpha"/>
<feOffset dx="-2.49003" dy="3.11254"/>
<feGaussianBlur stdDeviation="1.24502"/>
<feComposite in2="hardAlpha" operator="arithmetic" k2="-1" k3="1"/>
<feColorMatrix type="matrix" values="0 0 0 0 0 0 0 0 0 0 0 0 0 0 0 0 0 0 0.8 0"/>
<feBlend mode="normal" in2="shape" result="effect2_innerShadow_3_485"/>
</filter>
<filter id="filter14_f_3_485" x="554.722" y="417.261" width="384.302" height="178.935" filterUnits="userSpaceOnUse" color-interpolation-filters="sRGB">
<feFlood flood-opacity="0" result="BackgroundImageFix"/>
<feBlend mode="normal" in="SourceGraphic" in2="BackgroundImageFix" result="shape"/>
<feGaussianBlur stdDeviation="8.71512" result="effect1_foregroundBlur_3_485"/>
</filter>
<filter id="filter15_di_3_485" x="454.97" y="427.393" width="26.9902" height="23.361" filterUnits="userSpaceOnUse" color-interpolation-filters="sRGB">
<feFlood flood-opacity="0" result="BackgroundImageFix"/>
<feColorMatrix in="SourceAlpha" type="matrix" values="0 0 0 0 0 0 0 0 0 0 0 0 0 0 0 0 0 0 127 0" result="hardAlpha"/>
<feOffset dy="-0.308751"/>
<feGaussianBlur stdDeviation="0.154375"/>
<feColorMatrix type="matrix" values="0 0 0 0 0.78755 0 0 0 0 0.78755 0 0 0 0 0.78755 0 0 0 0.19 0"/>
<feBlend mode="normal" in2="BackgroundImageFix" result="effect1_dropShadow_3_485"/>
<feBlend mode="normal" in="SourceGraphic" in2="effect1_dropShadow_3_485" result="shape"/>
<feColorMatrix in="SourceAlpha" type="matrix" values="0 0 0 0 0 0 0 0 0 0 0 0 0 0 0 0 0 0 127 0" result="hardAlpha"/>
<feOffset dy="1.54375"/>
<feGaussianBlur stdDeviation="0.771877"/>
<feComposite in2="hardAlpha" operator="arithmetic" k2="-1" k3="1"/>
<feColorMatrix type="matrix" values="0 0 0 0 0 0 0 0 0 0 0 0 0 0 0 0 0 0 0.74 0"/>
<feBlend mode="normal" in2="shape" result="effect2_innerShadow_3_485"/>
</filter>
<filter id="filter16_di_3_485" x="333.844" y="367.305" width="26.9902" height="23.361" filterUnits="userSpaceOnUse" color-interpolation-filters="sRGB">
<feFlood flood-opacity="0" result="BackgroundImageFix"/>
<feColorMatrix in="SourceAlpha" type="matrix" values="0 0 0 0 0 0 0 0 0 0 0 0 0 0 0 0 0 0 127 0" result="hardAlpha"/>
<feOffset dy="-0.308751"/>
<feGaussianBlur stdDeviation="0.154375"/>
<feColorMatrix type="matrix" values="0 0 0 0 0.78755 0 0 0 0 0.78755 0 0 0 0 0.78755 0 0 0 0.19 0"/>
<feBlend mode="normal" in2="BackgroundImageFix" result="effect1_dropShadow_3_485"/>
<feBlend mode="normal" in="SourceGraphic" in2="effect1_dropShadow_3_485" result="shape"/>
<feColorMatrix in="SourceAlpha" type="matrix" values="0 0 0 0 0 0 0 0 0 0 0 0 0 0 0 0 0 0 127 0" result="hardAlpha"/>
<feOffset dy="1.54375"/>
<feGaussianBlur stdDeviation="0.771877"/>
<feComposite in2="hardAlpha" operator="arithmetic" k2="-1" k3="1"/>
<feColorMatrix type="matrix" values="0 0 0 0 0 0 0 0 0 0 0 0 0 0 0 0 0 0 0.74 0"/>
<feBlend mode="normal" in2="shape" result="effect2_innerShadow_3_485"/>
</filter>
<filter id="filter17_f_3_485" x="818.733" y="494.692" width="226.481" height="129.908" filterUnits="userSpaceOnUse" color-interpolation-filters="sRGB">
<feFlood flood-opacity="0" result="BackgroundImageFix"/>
<feBlend mode="normal" in="SourceGraphic" in2="BackgroundImageFix" result="shape"/>
<feGaussianBlur stdDeviation="3.11254" result="effect1_foregroundBlur_3_485"/>
</filter>
<filter id="filter18_dii_3_485" x="744.525" y="495.979" width="324.921" height="158.472" filterUnits="userSpaceOnUse" color-interpolation-filters="sRGB">
<feFlood flood-opacity="0" result="BackgroundImageFix"/>
<feColorMatrix in="SourceAlpha" type="matrix" values="0 0 0 0 0 0 0 0 0 0 0 0 0 0 0 0 0 0 127 0" result="hardAlpha"/>
<feOffset dy="0.581988"/>
<feGaussianBlur stdDeviation="1.74596"/>
<feColorMatrix type="matrix" values="0 0 0 0 0 0 0 0 0 0 0 0 0 0 0 0 0 0 0.85 0"/>
<feBlend mode="normal" in2="BackgroundImageFix" result="effect1_dropShadow_3_485"/>
<feBlend mode="normal" in="SourceGraphic" in2="effect1_dropShadow_3_485" result="shape"/>
<feColorMatrix in="SourceAlpha" type="matrix" values="0 0 0 0 0 0 0 0 0 0 0 0 0 0 0 0 0 0 127 0" result="hardAlpha"/>
<feOffset dy="0.581988"/>
<feGaussianBlur stdDeviation="0.581988"/>
<feComposite in2="hardAlpha" operator="arithmetic" k2="-1" k3="1"/>
<feColorMatrix type="matrix" values="0 0 0 0 0 0 0 0 0 0 0 0 0 0 0 0 0 0 0.25 0"/>
<feBlend mode="normal" in2="shape" result="effect2_innerShadow_3_485"/>
<feColorMatrix in="SourceAlpha" type="matrix" values="0 0 0 0 0 0 0 0 0 0 0 0 0 0 0 0 0 0 127 0" result="hardAlpha"/>
<feOffset dy="-0.581988"/>
<feGaussianBlur stdDeviation="0.581988"/>
<feComposite in2="hardAlpha" operator="arithmetic" k2="-1" k3="1"/>
<feColorMatrix type="matrix" values="0 0 0 0 0 0 0 0 0 0 0 0 0 0 0 0 0 0 0.25 0"/>
<feBlend mode="normal" in2="effect2_innerShadow_3_485" result="effect3_innerShadow_3_485"/>
</filter>
<filter id="filter19_d_3_485" x="791.504" y="585.592" width="96.5126" height="40.427" filterUnits="userSpaceOnUse" color-interpolation-filters="sRGB">
<feFlood flood-opacity="0" result="BackgroundImageFix"/>
<feColorMatrix in="SourceAlpha" type="matrix" values="0 0 0 0 0 0 0 0 0 0 0 0 0 0 0 0 0 0 127 0" result="hardAlpha"/>
<feOffset dx="0.617501" dy="1.54375"/>
<feGaussianBlur stdDeviation="0.771877"/>
<feColorMatrix type="matrix" values="0 0 0 0 1 0 0 0 0 1 0 0 0 0 1 0 0 0 0.24 0"/>
<feBlend mode="normal" in2="BackgroundImageFix" result="effect1_dropShadow_3_485"/>
<feBlend mode="normal" in="SourceGraphic" in2="effect1_dropShadow_3_485" result="shape"/>
</filter>
<filter id="filter20_d_3_485" x="1031.81" y="504.039" width="29.2216" height="35.4897" filterUnits="userSpaceOnUse" color-interpolation-filters="sRGB">
<feFlood flood-opacity="0" result="BackgroundImageFix"/>
<feColorMatrix in="SourceAlpha" type="matrix" values="0 0 0 0 0 0 0 0 0 0 0 0 0 0 0 0 0 0 127 0" result="hardAlpha"/>
<feOffset dx="0.926252" dy="0.926252"/>
<feGaussianBlur stdDeviation="0.323923"/>
<feColorMatrix type="matrix" values="0 0 0 0 1 0 0 0 0 1 0 0 0 0 1 0 0 0 0.24 0"/>
<feBlend mode="normal" in2="BackgroundImageFix" result="effect1_dropShadow_3_485"/>
<feBlend mode="normal" in="SourceGraphic" in2="effect1_dropShadow_3_485" result="shape"/>
</filter>
<filter id="filter21_f_3_485" x="330.905" y="398.504" width="253.403" height="203.79" filterUnits="userSpaceOnUse" color-interpolation-filters="sRGB">
<feFlood flood-opacity="0" result="BackgroundImageFix"/>
<feBlend mode="normal" in="SourceGraphic" in2="BackgroundImageFix" result="shape"/>
<feGaussianBlur stdDeviation="1.54375" result="effect1_foregroundBlur_3_485"/>
</filter>
<linearGradient id="paint0_linear_3_485" x1="93.1577" y1="102.34" x2="97.7959" y2="33.3471" gradientUnits="userSpaceOnUse">
<stop stop-color="#3F3F3F"/>
<stop offset="1" stop-color="#5C5C5C"/>
</linearGradient>
<linearGradient id="paint1_linear_3_485" x1="87.1045" y1="89.8227" x2="60.9754" y2="-30.0843" gradientUnits="userSpaceOnUse">
<stop stop-color="#3F3F3F"/>
<stop offset="1" stop-color="#777676"/>
</linearGradient>
<linearGradient id="paint2_linear_3_485" x1="76.9365" y1="84.5071" x2="80.7659" y2="27.5363" gradientUnits="userSpaceOnUse">
<stop stop-color="#3F3F3F"/>
<stop offset="1" stop-color="#5C5C5C"/>
</linearGradient>
<linearGradient id="paint3_linear_3_485" x1="72.0062" y1="74.2645" x2="50.3999" y2="-24.872" gradientUnits="userSpaceOnUse">
<stop stop-color="#3F3F3F"/>
<stop offset="1" stop-color="#777676"/>
</linearGradient>
<linearGradient id="paint4_linear_3_485" x1="246.191" y1="441.506" x2="273.309" y2="376.549" gradientUnits="userSpaceOnUse">
<stop stop-color="#3F3F3F"/>
<stop offset="1" stop-color="#777676"/>
</linearGradient>
<linearGradient id="paint5_linear_3_485" x1="719.825" y1="709.142" x2="1005.06" y2="330.537" gradientUnits="userSpaceOnUse">
<stop stop-color="#2C2C2C"/>
<stop offset="0.628054" stop-color="#515151"/>
<stop offset="1" stop-color="#7D7D7D"/>
</linearGradient>
<linearGradient id="paint6_linear_3_485" x1="748.033" y1="106.027" x2="513.292" y2="308.923" gradientUnits="userSpaceOnUse">
<stop stop-color="#E8EAE9"/>
<stop offset="0.498386" stop-color="#707072"/>
<stop offset="1" stop-color="#2F3032"/>
</linearGradient>
<linearGradient id="paint7_linear_3_485" x1="346.161" y1="802.892" x2="578.942" y2="419.483" gradientUnits="userSpaceOnUse">
<stop stop-color="#E8EAE9"/>
<stop offset="0.498386" stop-color="#707072"/>
<stop offset="1" stop-color="#2F3032"/>
</linearGradient>
<linearGradient id="paint8_linear_3_485" x1="272.731" y1="392.53" x2="400.564" y2="222.406" gradientUnits="userSpaceOnUse">
<stop stop-color="#E8EAE9"/>
<stop offset="0.498386" stop-color="#707072"/>
<stop offset="1" stop-color="#2F3032"/>
</linearGradient>
<linearGradient id="paint9_linear_3_485" x1="731.434" y1="581.807" x2="763.054" y2="501.387" gradientUnits="userSpaceOnUse">
<stop stop-color="#ECEAEA"/>
<stop offset="1" stop-color="white" stop-opacity="0"/>
</linearGradient>
<linearGradient id="paint10_linear_3_485" x1="932.717" y1="600.869" x2="915.532" y2="563.383" gradientUnits="userSpaceOnUse">
<stop stop-color="#4B4B4B"/>
<stop offset="0.899322" stop-opacity="0"/>
</linearGradient>
<linearGradient id="paint11_linear_3_485" x1="509.199" y1="454.528" x2="432.95" y2="594.985" gradientUnits="userSpaceOnUse">
<stop stop-color="#343434" stop-opacity="0.66"/>
<stop offset="1" stop-color="#1A1A1A"/>
</linearGradient>
</defs>
</svg>
